<?xml version="1.0" encoding="UTF-8"?>
<svg version="1.1" xmlns="http://www.w3.org/2000/svg" width="476" height="103">
<path d="M0 0 C0.07895296 10.66715232 0.05910238 21.33282503 0 32 C-0.00776459 33.53095306 -0.00776459 33.53095306 -0.01568604 35.09283447 C-0.05300097 41.82710463 -0.11721673 48.56049367 -0.20852661 55.29425049 C-0.23615076 57.55438997 -0.25689487 59.81462413 -0.27072144 62.07489014 C-0.29195463 65.2835464 -0.33834152 68.49093769 -0.390625 71.69921875 C-0.39185867 72.66567825 -0.39309235 73.63213776 -0.3943634 74.62788391 C-0.48925026 78.95217989 -0.6242334 81.38249789 -2.91308594 85.14379883 C-5 87 -5 87 -7 87 C-7.226875 87.556875 -7.45375 88.11375 -7.6875 88.6875 C-9.37550036 91.66159588 -11.46676517 93.72008865 -14 96 C-14.66 96 -15.32 96 -16 96 C-16 96.66 -16 97.32 -16 98 C-19.43952035 101.79229167 -21.69273376 102.81959457 -26.79296875 103.5234375 C-34.03327511 103.78844871 -39.74530272 102.98544369 -45.32324219 98.13354492 C-47.48652028 96.02817672 -49.54619077 93.85287554 -51.55517578 91.60009766 C-53.7185665 89.20421006 -56.05507579 86.99317484 -58.375 84.75 C-61.31074942 81.76635907 -64.22591442 78.76574196 -67.0625 75.6875 C-67.61035156 75.09324219 -68.15820312 74.49898438 -68.72265625 73.88671875 C-70.37655923 71.44379783 -70.94263879 69.96954548 -71 67 C-69.234375 64.140625 -69.234375 64.140625 -66.75 61.25 C-65.94046875 60.28578125 -65.1309375 59.3215625 -64.296875 58.328125 C-62 56 -62 56 -59 55 C-57.29115995 56.62339805 -55.62553283 58.29319053 -54 60 C-54 60.66 -54 61.32 -54 62 C-53.43015381 62.23952393 -52.86030762 62.47904785 -52.27319336 62.72583008 C-49.53162098 64.26253572 -47.77934498 66.09548165 -45.62890625 68.38671875 C-44.80712891 69.24201172 -43.98535156 70.09730469 -43.13867188 70.97851562 C-41.4172106 72.78872547 -39.70367349 74.60650324 -37.99804688 76.43164062 C-36.76344727 77.7087793 -36.76344727 77.7087793 -35.50390625 79.01171875 C-34.75955322 79.80022217 -34.0152002 80.58872559 -33.24829102 81.40112305 C-31.09602442 83.28381428 -31.09602442 83.28381428 -28.33105469 82.85107422 C-25.56749496 81.84209127 -24.48695521 80.73912875 -22.6875 78.4375 C-22.17574219 77.79683594 -21.66398437 77.15617187 -21.13671875 76.49609375 C-20.76160156 76.00238281 -20.38648437 75.50867188 -20 75 C-20.58652344 74.7421875 -21.17304687 74.484375 -21.77734375 74.21875 C-24.17337123 72.90493528 -25.68911552 71.4781599 -27.5625 69.5 C-29.67524223 67.27903267 -31.41613626 65.72257583 -34 64 C-34 63.34 -34 62.68 -34 62 C-34.89078247 61.5970874 -34.89078247 61.5970874 -35.79956055 61.18603516 C-38.00987445 59.99467768 -39.44647183 58.79788102 -41.20703125 57.0234375 C-41.79025146 56.43892822 -42.37347168 55.85441895 -42.97436523 55.25219727 C-43.58094971 54.63272217 -44.18753418 54.01324707 -44.8125 53.375 C-45.43906494 52.74198975 -46.06562988 52.10897949 -46.71118164 51.45678711 C-50.44219228 47.66358486 -54.04245565 43.79731241 -57.484375 39.73828125 C-60.16191212 36.6673946 -63.08841955 33.84671851 -66 31 C-67.33333333 29.66666667 -68.66666667 28.33333333 -70 27 C-71.64335076 27.9810086 -71.64335076 27.9810086 -73 30 C-73.32054153 32.83414327 -73.46488626 35.45922362 -73.4765625 38.296875 C-73.49993179 39.53561371 -73.49993179 39.53561371 -73.52377319 40.79937744 C-73.57129958 43.44957345 -73.59897231 46.09951338 -73.625 48.75 C-73.91608563 69.30600744 -73.91608563 69.30600744 -74.3046875 77.5234375 C-74.35351074 78.68794434 -74.40233398 79.85245117 -74.45263672 81.05224609 C-75.42187047 86.27192866 -78.86495446 88.13515209 -83 91 C-84.67676689 92.57180496 -86.32273382 94.17706481 -87.9375 95.8125 C-89.06478516 96.93591797 -89.06478516 96.93591797 -90.21484375 98.08203125 C-92.05861133 99.88220438 -92.05861133 99.88220438 -93 102 C-93.66 102 -94.32 102 -95 102 C-95.2092418 92.26395625 -95.36880046 82.52845387 -95.46630955 72.79061317 C-95.51312902 68.26796243 -95.57654658 63.74685832 -95.67895508 59.22509766 C-95.7773055 54.85478077 -95.83067209 50.48594369 -95.85389519 46.11460495 C-95.87042671 44.45356336 -95.90271108 42.79259584 -95.95157051 41.1321907 C-96.36414922 26.51992683 -96.36414922 26.51992683 -90.60522461 20.09912109 C-89.09137495 18.70926817 -87.55877497 17.33927314 -86 16 C-85.11935784 14.95933852 -84.26040221 13.89939415 -83.4375 12.8125 C-80.76532369 9.72921964 -77.87462831 7.1516921 -74.76953125 4.515625 C-72.91655093 2.96792368 -72.91655093 2.96792368 -71 1 C-67.28497884 1.27804732 -65.54983677 3.12967691 -63.0625 5.75 C-62.08990234 6.76320313 -62.08990234 6.76320313 -61.09765625 7.796875 C-60.40542969 8.52390625 -59.71320312 9.2509375 -59 10 C-56.74916497 12.26638484 -54.48537067 14.51921269 -52.21606445 16.76708984 C-50.18382087 18.78033102 -48.15439184 20.79638456 -46.125 22.8125 C-45.10212891 23.82280273 -45.10212891 23.82280273 -44.05859375 24.85351562 C-40.05744095 28.83561531 -36.24342823 32.91147811 -32.58129883 37.20825195 C-30.98189659 39.02051272 -29.30099502 40.69668852 -27.5625 42.375 C-25 45 -25 45 -25 47 C-24.34 47 -23.68 47 -23 47 C-21.375 49 -21.375 49 -20 51 C-20.03665771 50.04222656 -20.07331543 49.08445313 -20.11108398 48.09765625 C-20.23867952 44.5123553 -20.31846058 40.92725054 -20.38452148 37.34033203 C-20.41952406 35.7940893 -20.46714551 34.24807491 -20.52807617 32.70263672 C-21.08483118 18.20829203 -21.08483118 18.20829203 -16.67578125 13.17578125 C-15.469897 12.09516708 -14.24494035 11.03537788 -13 10 C-11.89465601 8.74826395 -10.80780666 7.47965848 -9.75 6.1875 C-8.84390697 5.11596864 -7.92764415 4.05292942 -7 3 C-6.53078125 2.43925781 -6.0615625 1.87851562 -5.578125 1.30078125 C-4 0 -4 0 0 0 Z " fill="#6B40DB" transform="translate(95,0)"/>
<path d="M0 0 C0.07895296 10.66715232 0.05910238 21.33282503 0 32 C-0.00776459 33.53095306 -0.00776459 33.53095306 -0.01568604 35.09283447 C-0.05300097 41.82710463 -0.11721673 48.56049367 -0.20852661 55.29425049 C-0.23615076 57.55438997 -0.25689487 59.81462413 -0.27072144 62.07489014 C-0.29195463 65.2835464 -0.33834152 68.49093769 -0.390625 71.69921875 C-0.39185867 72.66567825 -0.39309235 73.63213776 -0.3943634 74.62788391 C-0.48925026 78.95217989 -0.6242334 81.38249789 -2.91308594 85.14379883 C-5 87 -5 87 -7 87 C-7.226875 87.556875 -7.45375 88.11375 -7.6875 88.6875 C-9.37550036 91.66159588 -11.46676517 93.72008865 -14 96 C-14.66 96 -15.32 96 -16 96 C-16 96.66 -16 97.32 -16 98 C-19.43952035 101.79229167 -21.69273376 102.81959457 -26.79296875 103.5234375 C-34.03327511 103.78844871 -39.74530272 102.98544369 -45.32324219 98.13354492 C-47.48652028 96.02817672 -49.54619077 93.85287554 -51.55517578 91.60009766 C-53.7185665 89.20421006 -56.05507579 86.99317484 -58.375 84.75 C-61.31074942 81.76635907 -64.22591442 78.76574196 -67.0625 75.6875 C-67.61035156 75.09324219 -68.15820312 74.49898438 -68.72265625 73.88671875 C-70.37655923 71.44379783 -70.94263879 69.96954548 -71 67 C-69.234375 64.140625 -69.234375 64.140625 -66.75 61.25 C-65.94046875 60.28578125 -65.1309375 59.3215625 -64.296875 58.328125 C-62 56 -62 56 -59 55 C-57.29115995 56.62339805 -55.62553283 58.29319053 -54 60 C-54 60.66 -54 61.32 -54 62 C-53.43015381 62.23952393 -52.86030762 62.47904785 -52.27319336 62.72583008 C-49.53162098 64.26253572 -47.77934498 66.09548165 -45.62890625 68.38671875 C-44.80712891 69.24201172 -43.98535156 70.09730469 -43.13867188 70.97851562 C-41.4172106 72.78872547 -39.70367349 74.60650324 -37.99804688 76.43164062 C-36.76344727 77.7087793 -36.76344727 77.7087793 -35.50390625 79.01171875 C-34.75955322 79.80022217 -34.0152002 80.58872559 -33.24829102 81.40112305 C-31.09602442 83.28381428 -31.09602442 83.28381428 -28.33105469 82.85107422 C-25.56749496 81.84209127 -24.48695521 80.73912875 -22.6875 78.4375 C-22.17574219 77.79683594 -21.66398437 77.15617187 -21.13671875 76.49609375 C-20.76160156 76.00238281 -20.38648437 75.50867188 -20 75 C-20.60328125 74.73445313 -21.2065625 74.46890625 -21.828125 74.1953125 C-25.08886614 72.40073194 -26.71795549 69.91594577 -29 67 C-24.39004719 67.84365149 -21.67284322 70.21042092 -19 74 C-18.90891794 77.82544646 -20.43259222 80.2271996 -23 83 C-23.66 83 -24.32 83 -25 83 C-25 83.66 -25 84.32 -25 85 C-26.65 85.33 -28.3 85.66 -30 86 C-29.01 87.485 -29.01 87.485 -28 89 C-27.61500109 90.65549531 -27.27206865 92.3222433 -27 94 C-25.35 94.33 -23.7 94.66 -22 95 C-22 95.66 -22 96.32 -22 97 C-20.32700041 96.34938905 -18.66140763 95.67966676 -17 95 C-16.278125 94.71125 -15.55625 94.4225 -14.8125 94.125 C-12.8563303 93.13814179 -12.8563303 93.13814179 -12.109375 91.11328125 C-10.85509772 88.72397136 -9.50784619 87.76113476 -7.4375 86.0625 C-1.31647427 79.10332551 -2.94792091 68.70388559 -3 60 C-2.99966832 57.72135382 -2.99833085 55.44270761 -2.99609375 53.1640625 C-2.99584636 49.53586672 -3.00014403 45.90794123 -3.01782227 42.27978516 C-3.06537602 29.17051311 -2.5697147 16.09586207 -2 3 C-2.66 3 -3.32 3 -4 3 C-4.26039062 3.60070312 -4.52078125 4.20140625 -4.7890625 4.8203125 C-6.40590361 7.73062651 -8.54506062 9.23517889 -11.1484375 11.2421875 C-14.30421127 14.23817525 -16.81341063 16.85554865 -17.20605469 21.36816406 C-17.13291243 24.15684157 -16.93390212 26.90885303 -16.6875 29.6875 C-16.55755566 31.65462754 -16.43249731 33.62208438 -16.3125 35.58984375 C-16.25320312 36.52554199 -16.19390625 37.46124023 -16.1328125 38.42529297 C-15.63263919 48.12166751 -15.63263919 48.12166751 -17 52 C-19.05078125 53.265625 -19.05078125 53.265625 -21 54 C-21.93005859 52.9790625 -21.93005859 52.9790625 -22.87890625 51.9375 C-29.06520971 45.16588399 -35.30635202 38.45002352 -41.60766602 31.78515625 C-45.31289218 27.85206192 -48.90815002 23.84842218 -52.41845703 19.73999023 C-54.73493273 17.19143785 -57.31689131 15.15815264 -60 13 C-61.6857124 11.35259924 -63.3563186 9.68933922 -65 8 C-65.66 7.34 -66.32 6.68 -67 6 C-68.46489049 6.56666546 -69.92178003 7.15404228 -71.375 7.75 C-72.59316406 8.23726562 -72.59316406 8.23726562 -73.8359375 8.734375 C-76.38825375 10.22706537 -76.77200525 11.38473085 -78 14 C-79.69140625 15.16015625 -79.69140625 15.16015625 -81.5625 16.0625 C-85.2511691 17.63488132 -85.2511691 17.63488132 -86 21 C-86.66 21 -87.32 21 -88 21 C-88.66 22.32 -89.32 23.64 -90 25 C-90.66 25 -91.32 25 -92 25 C-92.33 40.84 -92.66 56.68 -93 73 C-93.66 72.67 -94.32 72.34 -95 72 C-95.22966404 65.63271059 -95.38640197 59.26650123 -95.49438477 52.89599609 C-95.53943055 50.73282975 -95.60068989 48.56993415 -95.67895508 46.40771484 C-96.39480101 26.11137734 -96.39480101 26.11137734 -90.625 19.72265625 C-89.11481175 18.44364718 -87.57672571 17.19602206 -86 16 C-85.1116621 14.96590004 -84.25176157 13.90588238 -83.4375 12.8125 C-80.76532369 9.72921964 -77.87462831 7.1516921 -74.76953125 4.515625 C-72.91655093 2.96792368 -72.91655093 2.96792368 -71 1 C-67.28497884 1.27804732 -65.54983677 3.12967691 -63.0625 5.75 C-62.08990234 6.76320313 -62.08990234 6.76320313 -61.09765625 7.796875 C-60.40542969 8.52390625 -59.71320312 9.2509375 -59 10 C-56.74916497 12.26638484 -54.48537067 14.51921269 -52.21606445 16.76708984 C-50.18382087 18.78033102 -48.15439184 20.79638456 -46.125 22.8125 C-45.10212891 23.82280273 -45.10212891 23.82280273 -44.05859375 24.85351562 C-40.05744095 28.83561531 -36.24342823 32.91147811 -32.58129883 37.20825195 C-30.98189659 39.02051272 -29.30099502 40.69668852 -27.5625 42.375 C-25 45 -25 45 -25 47 C-24.34 47 -23.68 47 -23 47 C-21.375 49 -21.375 49 -20 51 C-20.03665771 50.04222656 -20.07331543 49.08445313 -20.11108398 48.09765625 C-20.23867952 44.5123553 -20.31846058 40.92725054 -20.38452148 37.34033203 C-20.41952406 35.7940893 -20.46714551 34.24807491 -20.52807617 32.70263672 C-21.08483118 18.20829203 -21.08483118 18.20829203 -16.67578125 13.17578125 C-15.469897 12.09516708 -14.24494035 11.03537788 -13 10 C-11.89465601 8.74826395 -10.80780666 7.47965848 -9.75 6.1875 C-8.84390697 5.11596864 -7.92764415 4.05292942 -7 3 C-6.53078125 2.43925781 -6.0615625 1.87851562 -5.578125 1.30078125 C-4 0 -4 0 0 0 Z " fill="#6531DA" transform="translate(95,0)"/>
<path d="M0 0 C1.60459015 -0.07507528 3.21019101 -0.12876671 4.81591797 -0.17333984 C5.70987274 -0.20551605 6.60382751 -0.23769226 7.52487183 -0.27084351 C10.37467252 0.04099894 11.15816869 0.59674384 12.9453125 2.7734375 C13.70785424 3.95143301 14.43434508 5.15346854 15.125 6.375 C15.50914062 6.97828125 15.89328125 7.5815625 16.2890625 8.203125 C19 12.55998884 19 12.55998884 19 15 C19.66 15 20.32 15 21 15 C22.04644066 16.63790712 23.0398183 18.31008021 24 20 C24.556875 20.721875 25.11375 21.44375 25.6875 22.1875 C27 24 27 24 27 26 C27.66 26 28.32 26 29 26 C28.99214478 24.8718689 28.99214478 24.8718689 28.98413086 23.72094727 C28.96342773 20.33480658 28.95036123 16.94867916 28.9375 13.5625 C28.92912109 12.37849609 28.92074219 11.19449219 28.91210938 9.97460938 C28.90727539 8.28754883 28.90727539 8.28754883 28.90234375 6.56640625 C28.89710693 5.52427979 28.89187012 4.48215332 28.88647461 3.40844727 C29 1 29 1 30 0 C33.3 0 36.6 0 40 0 C40.33 16.5 40.66 33 41 50 C38.03 50 35.06 50 32 50 C29 47 29 47 27.625 44.6875 C26.04930937 42.08155012 24.2303381 39.90447671 22.25390625 37.59765625 C20.59299947 35.481423 19.33122292 33.17064701 18.046875 30.8125 C16.25623958 27.71229539 14.11830087 24.88324285 12 22 C10.83010551 27.76099303 10.66795959 33.5190595 10.4375 39.375 C10.39431641 40.39722656 10.35113281 41.41945312 10.30664062 42.47265625 C10.20112208 44.98165288 10.09900787 47.49073943 10 50 C8.35425434 50.02688151 6.70838587 50.04634123 5.0625 50.0625 C4.14597656 50.07410156 3.22945312 50.08570313 2.28515625 50.09765625 C0 50 0 50 -1 49 C-1.06381711 47.46411744 -1.05710245 45.92522849 -1.02172852 44.38842773 C-1.00163223 43.40748642 -0.98153595 42.4265451 -0.96083069 41.4158783 C-0.93379562 40.3492244 -0.90676056 39.2825705 -0.87890625 38.18359375 C-0.85529526 37.0974025 -0.83168427 36.01121124 -0.80735779 34.8921051 C-0.73050259 31.40711091 -0.64657274 27.92232684 -0.5625 24.4375 C-0.50930118 22.08139065 -0.45656066 19.7252709 -0.40429688 17.36914062 C-0.27485806 11.57929576 -0.13960338 5.7896082 0 0 Z " fill="#111416" transform="translate(132,25)"/>
<path d="M0 0 C2.97 0 5.94 0 9 0 C9.66 1.32 10.32 2.64 11 4 C11.66 4 12.32 4 13 4 C13.7734375 5.4540625 13.7734375 5.4540625 14.5625 6.9375 C16.84846921 10.98127225 19.67091348 14.49537968 22.609375 18.08203125 C24 20 24 20 24 22 C24.66 22 25.32 22 26 22 C26 22.99 26 23.98 26 25 C26.66 25 27.32 25 28 25 C28.33 25.99 28.66 26.98 29 28 C29.33 19.09 29.66 10.18 30 1 C32.97 1 35.94 1 39 1 C39 16.84 39 32.68 39 49 C31 49 31 49 29.0390625 47.55859375 C28.57242187 46.85863281 28.10578125 46.15867188 27.625 45.4375 C27.06554687 44.62796875 26.50609375 43.8184375 25.9296875 42.984375 C25.29289062 41.99953125 24.65609375 41.0146875 24 40 C23.15057165 38.73294167 22.29886246 37.46741049 21.4453125 36.203125 C19.32108627 33.04751588 17.22488536 29.87482977 15.14746094 26.68823242 C13.82838464 24.74750633 12.40794063 22.87725417 11 21 C10.67 30.57 10.34 40.14 10 50 C6.7 50 3.4 50 0 50 C0 33.5 0 17 0 0 Z " fill="#111316" transform="translate(436,25)"/>
<path d="M0 0 C3.3 0 6.6 0 10 0 C11 1 11 1 11.11352539 2.85766602 C11.10828857 3.64842529 11.10305176 4.43918457 11.09765625 5.25390625 C11.09443359 6.10791016 11.09121094 6.96191406 11.08789062 7.84179688 C11.07951172 8.73962891 11.07113281 9.63746094 11.0625 10.5625 C11.05798828 11.46419922 11.05347656 12.36589844 11.04882812 13.29492188 C11.03700244 15.52997589 11.01906638 17.76499602 11 20 C16.94 20 22.88 20 29 20 C29 13.4 29 6.8 29 0 C32.3 0 35.6 0 39 0 C39 16.5 39 33 39 50 C35.7 50 32.4 50 29 50 C29 43.07 29 36.14 29 29 C26.586875 29.144375 24.17375 29.28875 21.6875 29.4375 C20.93170654 29.48060303 20.17591309 29.52370605 19.3972168 29.56811523 C16.39405127 29.75835191 13.86798955 30.04400348 11 31 C11.09539062 32.12019531 11.19078125 33.24039063 11.2890625 34.39453125 C11.40161885 35.8671435 11.5135663 37.33980237 11.625 38.8125 C11.68945312 39.55048828 11.75390625 40.28847656 11.8203125 41.04882812 C12.2265625 46.66015625 12.2265625 46.66015625 10 50 C6.7 50 3.4 50 0 50 C0 33.5 0 17 0 0 Z " fill="#101215" transform="translate(267,25)"/>
<path d="M0 0 C1.93681161 -0.08107583 3.8745934 -0.13922475 5.8125 -0.1875 C6.89144531 -0.22230469 7.97039062 -0.25710937 9.08203125 -0.29296875 C12 0 12 0 13.71875 1.2578125 C15.1160249 3.15776557 16.44085133 5.05962601 17.6875 7.0625 C18.34298828 8.10083984 18.34298828 8.10083984 19.01171875 9.16015625 C20 11 20 11 20 13 C20.99 13.33 21.98 13.66 23 14 C23.33 13.01 23.66 12.02 24 11 C24.66 11 25.32 11 26 11 C27.07525194 8.34771188 28.09456151 5.71631546 29 3 C29.66 3 30.32 3 31 3 C31.33 2.01 31.66 1.02 32 0 C35.63 0 39.26 0 43 0 C42.01187178 4.94064111 40.94389094 6.92600136 38.125 10.9375 C34.75762346 15.75247568 31.8660309 20.40190729 30 26 C31.46187832 28.44024892 31.46187832 28.44024892 33.5625 31 C44 44.77603251 44 44.77603251 44 50 C39.528469 50.59708871 35.44402173 50.88246329 31 50 C28.04638712 47.05722606 26.61079087 43.80242453 25 40 C24.34 39.01 23.68 38.02 23 37 C22.01 37 21.02 37 20 37 C19.01 39.475 19.01 39.475 18 42 C17.34 42 16.68 42 16 42 C15.731875 42.763125 15.46375 43.52625 15.1875 44.3125 C13.99316688 47.01546444 13.32871001 48.24325386 11 50 C8.30078125 50.29296875 8.30078125 50.29296875 5.3125 50.1875 C4.31863281 50.16042969 3.32476562 50.13335937 2.30078125 50.10546875 C1.54152344 50.07066406 0.78226563 50.03585938 0 50 C0.56904689 45.80422759 1.98473525 43.07657741 4.3125 39.5625 C4.94027344 38.60472656 5.56804687 37.64695313 6.21484375 36.66015625 C7.59561738 34.60259205 8.98277611 32.54980565 10.375 30.5 C12.1300839 28.02955197 12.1300839 28.02955197 13 25 C13.66 25 14.32 25 15 25 C14.57847656 24.31292969 14.15695313 23.62585938 13.72265625 22.91796875 C12.90087891 21.56638672 12.90087891 21.56638672 12.0625 20.1875 C11.51722656 19.29417969 10.97195312 18.40085937 10.41015625 17.48046875 C9 15 9 15 8 12 C7.34 11.67 6.68 11.34 6 11 C5.375 8.9375 5.375 8.9375 5 7 C4.34 7 3.68 7 3 7 C0 2.61538462 0 2.61538462 0 0 Z M21 33 C22 35 22 35 22 35 Z " fill="#0F1114" transform="translate(217,25)"/>
<path d="M0 0 C1.20970459 0.00523682 2.41940918 0.01047363 3.66577148 0.01586914 C4.97094727 0.0190918 6.27612305 0.02231445 7.62084961 0.02563477 C9.00952213 0.03399138 10.39819401 0.04245634 11.78686523 0.05102539 C13.17944179 0.05603873 14.57202005 0.06060193 15.96459961 0.06469727 C19.38456394 0.07653105 22.80444367 0.09301659 26.22436523 0.11352539 C26.2512574 1.59259431 26.27071145 3.07180022 26.28686523 4.55102539 C26.2984668 5.37473633 26.31006836 6.19844727 26.32202148 7.04711914 C26.22436523 9.11352539 26.22436523 9.11352539 25.22436523 10.11352539 C22.53200748 10.35031256 19.85938368 10.53550564 17.16186523 10.67602539 C16.02394531 10.74080078 16.02394531 10.74080078 14.86303711 10.80688477 C12.98371086 10.91326172 11.1040628 11.01392473 9.22436523 11.11352539 C8.89436523 14.08352539 8.56436523 17.05352539 8.22436523 20.11352539 C13.83436523 20.11352539 19.44436523 20.11352539 25.22436523 20.11352539 C25.22436523 23.08352539 25.22436523 26.05352539 25.22436523 29.11352539 C19.61436523 29.11352539 14.00436523 29.11352539 8.22436523 29.11352539 C8.22436523 32.74352539 8.22436523 36.37352539 8.22436523 40.11352539 C10.26430664 40.09612305 10.26430664 40.09612305 12.34545898 40.07836914 C14.11759304 40.06899277 15.88972856 40.05989241 17.66186523 40.05102539 C18.55969727 40.04264648 19.4575293 40.03426758 20.38256836 40.02563477 C21.23657227 40.02241211 22.09057617 40.01918945 22.97045898 40.01586914 C23.76121826 40.01063232 24.55197754 40.00539551 25.36669922 40 C27.22436523 40.11352539 27.22436523 40.11352539 28.22436523 41.11352539 C28.35717773 42.92602539 28.35717773 42.92602539 28.34936523 45.11352539 C28.35323242 46.19633789 28.35323242 46.19633789 28.35717773 47.30102539 C28.22436523 49.11352539 28.22436523 49.11352539 27.22436523 50.11352539 C25.00581259 50.20136081 22.78448027 50.22047148 20.56420898 50.21118164 C19.56750938 50.20905922 19.56750938 50.20905922 18.55067444 50.20689392 C16.42102624 50.20128057 14.29148184 50.18872593 12.16186523 50.17602539 C10.72111154 50.1710121 9.2803562 50.1664489 7.83959961 50.16235352 C4.30115421 50.15130684 0.76276985 50.13403331 -2.77563477 50.11352539 C-4.08768621 45.12329993 -3.91954835 40.15482233 -3.90844727 35.03540039 C-3.90940399 34.06822083 -3.91036072 33.10104126 -3.91134644 32.10455322 C-3.91202533 30.0671787 -3.91019135 28.02980198 -3.90600586 25.99243164 C-3.90063021 22.86087248 -3.9059726 19.72945524 -3.91235352 16.59790039 C-3.91169314 14.61873341 -3.91041282 12.63956651 -3.90844727 10.66040039 C-3.91148361 9.24800079 -3.91148361 9.24800079 -3.9145813 7.80706787 C-3.91142914 6.94236877 -3.90827698 6.07766968 -3.9050293 5.18676758 C-3.9042337 4.42241394 -3.90343811 3.6580603 -3.90261841 2.87054443 C-3.68707312 -0.11186467 -3.00898662 0.12306964 0 0 Z " fill="#121417" transform="translate(183.775634765625,24.886474609375)"/>
<path d="M0 0 C9.57 0 19.14 0 29 0 C29 3.3 29 6.6 29 10 C20.585 10.495 20.585 10.495 12 11 C11.67 13.97 11.34 16.94 11 20 C16.61 20 22.22 20 28 20 C28 22.97 28 25.94 28 29 C22.39 29 16.78 29 11 29 C11 32.63 11 36.26 11 40 C17.27 40 23.54 40 30 40 C30 43.3 30 46.6 30 50 C20.1 50 10.2 50 0 50 C0 33.5 0 17 0 0 Z " fill="#131518" transform="translate(314,25)"/>
<path d="M0 0 C9.24 0 18.48 0 28 0 C29 3 29 3 28 10 C22.72 10 17.44 10 12 10 C11.34 13.3 10.68 16.6 10 20 C15.61 20 21.22 20 27 20 C27 20.66 27 21.32 27 22 C27.66 22 28.32 22 29 22 C29 23.98 29 25.96 29 28 C25.69005287 29.65497356 22.00877 29.10084335 18.375 29.0625 C17.57320313 29.05798828 16.77140625 29.05347656 15.9453125 29.04882812 C13.96350994 29.03703168 11.98174567 29.01909605 10 29 C10 32.63 10 36.26 10 40 C16.27 40 22.54 40 29 40 C29 43.3 29 46.6 29 50 C19.43 50 9.86 50 0 50 C0 33.5 0 17 0 0 Z " fill="#14171B" transform="translate(399,25)"/>
<path d="M0 0 C3.96 0 7.92 0 12 0 C22 23.33333333 22 23.33333333 22 30 C23.32 30.33 24.64 30.66 26 31 C26.25652344 29.70707031 26.51304687 28.41414063 26.77734375 27.08203125 C27.89286619 22.0626717 29.62143214 17.43811351 31.5625 12.6875 C32.19096501 11.12977714 32.81734442 9.57121085 33.44140625 8.01171875 C33.71670166 7.33584717 33.99199707 6.65997559 34.27563477 5.96362305 C35.15322745 3.69369704 35.15322745 3.69369704 36 0 C39.3 0 42.6 0 46 0 C45.43393721 4.69023454 44.81462495 9.34500026 44 14 C43.34 14 42.68 14 42 14 C41.8865625 14.67933594 41.773125 15.35867187 41.65625 16.05859375 C40.88327785 19.52316536 39.72552772 22.73148716 38.5 26.0625 C37.16699004 29.69340214 35.89125785 33.23778768 35 37 C34.49266847 38.5877111 33.97154818 40.17107494 33.4375 41.75 C33.16808594 42.54921875 32.89867187 43.3484375 32.62109375 44.171875 C32.41613281 44.77515625 32.21117187 45.3784375 32 46 C31.34 46 30.68 46 30 46 C29.67 47.32 29.34 48.64 29 50 C25.7 50 22.4 50 19 50 C16.32283159 44.10906297 13.8831113 38.20994283 11.6875 32.125 C11.08474538 30.47131408 10.48187722 28.81766955 9.87890625 27.1640625 C9.57227051 26.32004883 9.26563477 25.47603516 8.94970703 24.60644531 C7.05847479 19.41600947 5.13649446 14.23685639 3.22143555 9.05517578 C2.94468994 8.30478027 2.66794434 7.55438477 2.3828125 6.78125 C2.13934082 6.12189453 1.89586914 5.46253906 1.64501953 4.78320312 C1.0715059 3.19768322 0.53317833 1.59953498 0 0 Z M23 32 C23.66 32.66 24.32 33.32 25 34 C25 33.34 25 32.68 25 32 C24.34 32 23.68 32 23 32 Z " fill="#0A0B0E" transform="translate(347,25)"/>
<path d="M0 0 C0.07895296 10.66715232 0.05910238 21.33282503 0 32 C-0.00776459 33.53095306 -0.00776459 33.53095306 -0.01568604 35.09283447 C-0.05300097 41.82710463 -0.11721673 48.56049367 -0.20852661 55.29425049 C-0.23615076 57.55438997 -0.25689487 59.81462413 -0.27072144 62.07489014 C-0.29195463 65.2835464 -0.33834152 68.49093769 -0.390625 71.69921875 C-0.39185867 72.66567825 -0.39309235 73.63213776 -0.3943634 74.62788391 C-0.48925026 78.95217989 -0.6242334 81.38249789 -2.91308594 85.14379883 C-5 87 -5 87 -7 87 C-7.226875 87.556875 -7.45375 88.11375 -7.6875 88.6875 C-9.37550036 91.66159588 -11.46676517 93.72008865 -14 96 C-14.66 96 -15.32 96 -16 96 C-16 96.66 -16 97.32 -16 98 C-18.78385983 101.06938391 -20.74233917 102.85338433 -25 103.12988281 C-30.02695313 103.06660953 -35.00804992 102.56713944 -40 102 C-40 101.67 -40 101.34 -40 101 C-34.39 101 -28.78 101 -23 101 C-22.505 99.02 -22.505 99.02 -22 97 C-19.6875 95.875 -19.6875 95.875 -17 95 C-13.87459297 93.80371737 -13.87459297 93.80371737 -12.109375 91.11328125 C-10.85509772 88.72397136 -9.50784619 87.76113476 -7.4375 86.0625 C-1.31647427 79.10332551 -2.94792091 68.70388559 -3 60 C-2.99966832 57.72135382 -2.99833085 55.44270761 -2.99609375 53.1640625 C-2.99584636 49.53586672 -3.00014403 45.90794123 -3.01782227 42.27978516 C-3.06537602 29.17051311 -2.5697147 16.09586207 -2 3 C-2.66 3 -3.32 3 -4 3 C-4.26039062 3.60070312 -4.52078125 4.20140625 -4.7890625 4.8203125 C-6.40590361 7.73062651 -8.54506062 9.23517889 -11.1484375 11.2421875 C-14.30421127 14.23817525 -16.81341063 16.85554865 -17.20605469 21.36816406 C-17.13291243 24.15684157 -16.93390212 26.90885303 -16.6875 29.6875 C-16.55755566 31.65462754 -16.43249731 33.62208438 -16.3125 35.58984375 C-16.25320312 36.52554199 -16.19390625 37.46124023 -16.1328125 38.42529297 C-15.63263919 48.12166751 -15.63263919 48.12166751 -17 52 C-19.05078125 53.265625 -19.05078125 53.265625 -21 54 C-21.93005859 52.9790625 -21.93005859 52.9790625 -22.87890625 51.9375 C-29.06520971 45.16588399 -35.30635202 38.45002352 -41.60766602 31.78515625 C-45.31289218 27.85206192 -48.90815002 23.84842218 -52.41845703 19.73999023 C-54.73493273 17.19143785 -57.31689131 15.15815264 -60 13 C-61.6857124 11.35259924 -63.3563186 9.68933922 -65 8 C-65.66 7.34 -66.32 6.68 -67 6 C-68.46489049 6.56666546 -69.92178003 7.15404228 -71.375 7.75 C-72.59316406 8.23726562 -72.59316406 8.23726562 -73.8359375 8.734375 C-76.38825375 10.22706537 -76.77200525 11.38473085 -78 14 C-79.69140625 15.16015625 -79.69140625 15.16015625 -81.5625 16.0625 C-85.2511691 17.63488132 -85.2511691 17.63488132 -86 21 C-86.66 21 -87.32 21 -88 21 C-88.66 22.32 -89.32 23.64 -90 25 C-90.66 25 -91.32 25 -92 25 C-92.33 40.84 -92.66 56.68 -93 73 C-93.66 72.67 -94.32 72.34 -95 72 C-95.22966404 65.63271059 -95.38640197 59.26650123 -95.49438477 52.89599609 C-95.53943055 50.73282975 -95.60068989 48.56993415 -95.67895508 46.40771484 C-96.39480101 26.11137734 -96.39480101 26.11137734 -90.625 19.72265625 C-89.11481175 18.44364718 -87.57672571 17.19602206 -86 16 C-85.1116621 14.96590004 -84.25176157 13.90588238 -83.4375 12.8125 C-80.76532369 9.72921964 -77.87462831 7.1516921 -74.76953125 4.515625 C-72.91655093 2.96792368 -72.91655093 2.96792368 -71 1 C-67.28497884 1.27804732 -65.54983677 3.12967691 -63.0625 5.75 C-62.08990234 6.76320313 -62.08990234 6.76320313 -61.09765625 7.796875 C-60.40542969 8.52390625 -59.71320312 9.2509375 -59 10 C-56.74916497 12.26638484 -54.48537067 14.51921269 -52.21606445 16.76708984 C-50.18382087 18.78033102 -48.15439184 20.79638456 -46.125 22.8125 C-45.10212891 23.82280273 -45.10212891 23.82280273 -44.05859375 24.85351562 C-40.05744095 28.83561531 -36.24342823 32.91147811 -32.58129883 37.20825195 C-30.98189659 39.02051272 -29.30099502 40.69668852 -27.5625 42.375 C-25 45 -25 45 -25 47 C-24.34 47 -23.68 47 -23 47 C-21.375 49 -21.375 49 -20 51 C-20.03665771 50.04222656 -20.07331543 49.08445313 -20.11108398 48.09765625 C-20.23867952 44.5123553 -20.31846058 40.92725054 -20.38452148 37.34033203 C-20.41952406 35.7940893 -20.46714551 34.24807491 -20.52807617 32.70263672 C-21.08483118 18.20829203 -21.08483118 18.20829203 -16.67578125 13.17578125 C-15.469897 12.09516708 -14.24494035 11.03537788 -13 10 C-11.89465601 8.74826395 -10.80780666 7.47965848 -9.75 6.1875 C-8.84390697 5.11596864 -7.92764415 4.05292942 -7 3 C-6.53078125 2.43925781 -6.0615625 1.87851562 -5.578125 1.30078125 C-4 0 -4 0 0 0 Z " fill="#4C30BF" transform="translate(95,0)"/>
<path d="M0 0 C2.97 0 5.94 0 9 0 C11 5.875 11 5.875 11 7 C13.33059131 9.39532996 15.68532101 11.72128432 18.1875 13.9375 C20.75740477 16.86187439 22 20.08644119 22 24 C20.35 24.33 18.7 24.66 17 25 C16.01 23.68 15.02 22.36 14 21 C11.63447068 22.8147658 11.04245474 23.73220672 10.56762695 26.72729492 C10.54144287 27.80084229 10.51525879 28.87438965 10.48828125 29.98046875 C10.45283203 31.14384766 10.41738281 32.30722656 10.38085938 33.50585938 C10.34702148 35.32827148 10.34702148 35.32827148 10.3125 37.1875 C10.27833984 38.41404297 10.24417969 39.64058594 10.20898438 40.90429688 C10.1264059 43.93610678 10.05728631 46.96762379 10 50 C8.35425434 50.02688151 6.70838587 50.04634123 5.0625 50.0625 C4.14597656 50.07410156 3.22945312 50.08570313 2.28515625 50.09765625 C0 50 0 50 -1 49 C-1.06381711 47.46411744 -1.05710245 45.92522849 -1.02172852 44.38842773 C-1.00163223 43.40748642 -0.98153595 42.4265451 -0.96083069 41.4158783 C-0.93379562 40.3492244 -0.90676056 39.2825705 -0.87890625 38.18359375 C-0.85529526 37.0974025 -0.83168427 36.01121124 -0.80735779 34.8921051 C-0.73050259 31.40711091 -0.64657274 27.92232684 -0.5625 24.4375 C-0.50930118 22.08139065 -0.45656066 19.7252709 -0.40429688 17.36914062 C-0.27485799 11.57929286 -0.13907207 5.78962406 0 0 Z " fill="#15171B" transform="translate(132,25)"/>
<path d="M0 0 C2.475 0.495 2.475 0.495 5 1 C4.25467363 3.60558766 3.50476095 6.20964047 2.75 8.8125 C2.52618652 9.58698486 2.30237305 10.36146973 2.07177734 11.15942383 C0.77177637 15.59057526 -0.67282669 19.89040514 -2.375 24.1875 C-3.96420614 28.34196013 -3.77917094 30.61716347 -3 35 C-3.86505767 37.21070293 -4.9122335 39.20580503 -6.08984375 41.265625 C-7.15489252 42.96871274 -7.15489252 42.96871274 -7 45 C-7.66 45 -8.32 45 -9 45 C-9.33 46.32 -9.66 47.64 -10 49 C-13.3 49 -16.6 49 -20 49 C-24.62255359 39.1584343 -24.62255359 39.1584343 -25 34 C-24.67 33.34 -24.34 32.68 -24 32 C-19.52459016 30.73770492 -19.52459016 30.73770492 -17 32 C-16.375 34.0625 -16.375 34.0625 -16 36 C-15.34 36 -14.68 36 -14 36 C-13.34 33.36 -12.68 30.72 -12 28 C-11.34 28 -10.68 28 -10 28 C-9.690625 26.2675 -9.690625 26.2675 -9.375 24.5 C-8.3201543 19.7149753 -6.71465671 15.20429992 -5 10.625 C-4.73880371 9.92310547 -4.47760742 9.22121094 -4.20849609 8.49804688 C-3.0279388 5.40272883 -1.84554135 2.76831202 0 0 Z " fill="#14161A" transform="translate(386,26)"/>
<path d="M0 0 C9.24 0 18.48 0 28 0 C29.231394 3.69418201 28.64432764 6.2056261 28 10 C23.38 10 18.76 10 14 10 C14.66 9.34 15.32 8.68 16 8 C18.33333333 8 20.66666667 8 23 8 C23.99 7.34 24.98 6.68 26 6 C26 4.68 26 3.36 26 2 C18.74 2 11.48 2 4 2 C2.84708316 4.30583369 2.84602662 5.69866887 2.79467773 8.26611328 C2.77473251 9.14687531 2.75478729 10.02763733 2.73423767 10.93508911 C2.71752518 11.88721283 2.70081268 12.83933655 2.68359375 13.8203125 C2.66281265 14.79410858 2.64203156 15.76790466 2.62062073 16.77120972 C2.55511402 19.88906647 2.49623503 23.00700903 2.4375 26.125 C2.39431585 28.23568604 2.3507016 30.34636333 2.30664062 32.45703125 C2.19862023 37.63793407 2.09955507 42.81889984 2 48 C10.25 48 18.5 48 27 48 C27 46.02 27 44.04 27 42 C25.41676312 41.972807 23.83338938 41.95351694 22.25 41.9375 C21.36828125 41.92589844 20.4865625 41.91429687 19.578125 41.90234375 C17.05882085 41.88524462 17.05882085 41.88524462 14.984375 42.62890625 C13 43 13 43 8 41 C8 36.38 8 31.76 8 27 C13.61 27 19.22 27 25 27 C24.67 26.01 24.34 25.02 24 24 C24.33 23.34 24.66 22.68 25 22 C19.39 22 13.78 22 8 22 C8 17.38 8 12.76 8 8 C8.66 7.67 9.32 7.34 10 7 C10.99 7.99 11.98 8.98 13 10 C12.34 10.66 11.68 11.32 11 12 C10.67 14.64 10.34 17.28 10 20 C15.61 20 21.22 20 27 20 C27 20.66 27 21.32 27 22 C27.66 22 28.32 22 29 22 C29 23.98 29 25.96 29 28 C25.69005287 29.65497356 22.00877 29.10084335 18.375 29.0625 C17.57320313 29.05798828 16.77140625 29.05347656 15.9453125 29.04882812 C13.96350994 29.03703168 11.98174567 29.01909605 10 29 C10 32.63 10 36.26 10 40 C16.27 40 22.54 40 29 40 C29 43.3 29 46.6 29 50 C19.43 50 9.86 50 0 50 C0 33.5 0 17 0 0 Z " fill="#0A0B0D" transform="translate(399,25)"/>
<path d="M0 0 C1.79296875 1.07421875 1.79296875 1.07421875 3.04296875 3.82421875 C3.29046875 4.89671875 3.53796875 5.96921875 3.79296875 7.07421875 C4.46496095 8.34412528 5.17500546 9.5944864 5.91796875 10.82421875 C7.79296875 14.07421875 7.79296875 14.07421875 7.79296875 16.07421875 C8.45296875 16.07421875 9.11296875 16.07421875 9.79296875 16.07421875 C10.45296875 17.06421875 11.11296875 18.05421875 11.79296875 19.07421875 C11.46296875 20.06421875 11.13296875 21.05421875 10.79296875 22.07421875 C9.14296875 22.40421875 7.49296875 22.73421875 5.79296875 23.07421875 C5.45523437 22.59210937 5.1175 22.11 4.76953125 21.61328125 C4.10050781 20.66582031 4.10050781 20.66582031 3.41796875 19.69921875 C2.75667969 18.75949219 2.75667969 18.75949219 2.08203125 17.80078125 C0.76488009 15.95041366 0.76488009 15.95041366 -1.20703125 14.07421875 C-1.86703125 13.41421875 -2.52703125 12.75421875 -3.20703125 12.07421875 C-3.20703125 22.96421875 -3.20703125 33.85421875 -3.20703125 45.07421875 C-6.17703125 45.56921875 -6.17703125 45.56921875 -9.20703125 46.07421875 C-10.04415308 43.17842633 -10.30840383 40.68162721 -10.22875977 37.67285156 C-10.20866348 36.81226135 -10.1885672 35.95167114 -10.16786194 35.06500244 C-10.14082687 34.14507507 -10.11379181 33.22514771 -10.0859375 32.27734375 C-10.06232651 31.32857361 -10.03871552 30.37980347 -10.01438904 29.40228271 C-9.93790131 26.37610354 -9.85381278 23.35018991 -9.76953125 20.32421875 C-9.71629567 18.27084627 -9.66355537 16.21746088 -9.61132812 14.1640625 C-9.48230627 9.13394687 -9.3464679 4.10405602 -9.20703125 -0.92578125 C-5.36832924 -2.20534859 -3.65114416 -1.46976842 0 0 Z " fill="#14171A" transform="translate(447.20703125,27.92578125)"/>
<path d="M0 0 C2.97 0 5.94 0 9 0 C9 15.84 9 31.68 9 48 C1 48 1 48 -1.171875 46.2421875 C-1.69265625 45.46101563 -2.2134375 44.67984375 -2.75 43.875 C-3.31203125 43.05515625 -3.8740625 42.2353125 -4.453125 41.390625 C-4.96359375 40.60171875 -5.4740625 39.8128125 -6 39 C-6.44859375 38.39671875 -6.8971875 37.7934375 -7.359375 37.171875 C-8.5 35.625 -8.5 35.625 -10 33 C-9.67 32.01 -9.34 31.02 -9 30 C-8.773125 30.556875 -8.54625 31.11375 -8.3125 31.6875 C-7.03705 34.17347712 -7.03705 34.17347712 -4.625 36.375 C-1.88618782 39.11381218 -0.04928858 41.73631819 2 45 C2 40.38 2 35.76 2 31 C1.34 31.33 0.68 31.66 0 32 C0 21.44 0 10.88 0 0 Z " fill="#020203" transform="translate(466,26)"/>
<path d="M0 0 C1.20970459 0.00523682 2.41940918 0.01047363 3.66577148 0.01586914 C4.97094727 0.0190918 6.27612305 0.02231445 7.62084961 0.02563477 C9.00952213 0.03399138 10.39819401 0.04245634 11.78686523 0.05102539 C13.17944179 0.05603873 14.57202005 0.06060193 15.96459961 0.06469727 C19.38456394 0.07653105 22.80444367 0.09301659 26.22436523 0.11352539 C26.2512574 1.59259431 26.27071145 3.07180022 26.28686523 4.55102539 C26.2984668 5.37473633 26.31006836 6.19844727 26.32202148 7.04711914 C26.22436523 9.11352539 26.22436523 9.11352539 25.22436523 10.11352539 C22.53200748 10.35031256 19.85938368 10.53550564 17.16186523 10.67602539 C16.02394531 10.74080078 16.02394531 10.74080078 14.86303711 10.80688477 C12.98371086 10.91326172 11.1040628 11.01392473 9.22436523 11.11352539 C9.22436523 10.12352539 9.22436523 9.13352539 9.22436523 8.11352539 C9.92303711 8.12512695 10.62170898 8.13672852 11.34155273 8.14868164 C12.25163086 8.15770508 13.16170898 8.16672852 14.09936523 8.17602539 C15.00428711 8.18762695 15.90920898 8.19922852 16.84155273 8.21118164 C19.24122373 8.27601797 19.24122373 8.27601797 21.22436523 7.11352539 C22.21436523 7.44352539 23.20436523 7.77352539 24.22436523 8.11352539 C24.22436523 6.13352539 24.22436523 4.15352539 24.22436523 2.11352539 C15.97436523 2.11352539 7.72436523 2.11352539 -0.77563477 2.11352539 C-0.77563477 17.29352539 -0.77563477 32.47352539 -0.77563477 48.11352539 C5.65936523 47.61852539 5.65936523 47.61852539 12.22436523 47.11352539 C12.88436523 47.44352539 13.54436523 47.77352539 14.22436523 48.11352539 C16.43165753 48.18445381 18.64103976 48.19767564 20.84936523 48.17602539 C22.63213867 48.16249023 22.63213867 48.16249023 24.45092773 48.14868164 C25.36616211 48.13708008 26.28139648 48.12547852 27.22436523 48.11352539 C27.22436523 45.80352539 27.22436523 43.49352539 27.22436523 41.11352539 C27.55436523 41.11352539 27.88436523 41.11352539 28.22436523 41.11352539 C28.32202148 47.26586914 28.32202148 47.26586914 28.22436523 49.11352539 C27.22436523 50.11352539 27.22436523 50.11352539 24.35693359 50.22705078 C23.10533447 50.22181396 21.85373535 50.21657715 20.56420898 50.21118164 C19.56750938 50.20905922 19.56750938 50.20905922 18.55067444 50.20689392 C16.42102624 50.20128057 14.29148184 50.18872593 12.16186523 50.17602539 C10.72111154 50.1710121 9.2803562 50.1664489 7.83959961 50.16235352 C4.30115421 50.15130684 0.76276985 50.13403331 -2.77563477 50.11352539 C-4.08768621 45.12329993 -3.91954835 40.15482233 -3.90844727 35.03540039 C-3.90940399 34.06822083 -3.91036072 33.10104126 -3.91134644 32.10455322 C-3.91202533 30.0671787 -3.91019135 28.02980198 -3.90600586 25.99243164 C-3.90063021 22.86087248 -3.9059726 19.72945524 -3.91235352 16.59790039 C-3.91169314 14.61873341 -3.91041282 12.63956651 -3.90844727 10.66040039 C-3.91148361 9.24800079 -3.91148361 9.24800079 -3.9145813 7.80706787 C-3.91142914 6.94236877 -3.90827698 6.07766968 -3.9050293 5.18676758 C-3.9042337 4.42241394 -3.90343811 3.6580603 -3.90261841 2.87054443 C-3.68707312 -0.11186467 -3.00898662 0.12306964 0 0 Z " fill="#0A0B0D" transform="translate(183.775634765625,24.886474609375)"/>
<path d="M0 0 C2.97 0 5.94 0 9 0 C9.66 0.99 10.32 1.98 11 3 C8 3 8 3 2 2 C2 17.18 2 32.36 2 48 C3.98 48 5.96 48 8 48 C8 37.11 8 26.22 8 15 C14.43786735 17.14595578 17.9034416 25.2832768 21 31 C20.01 31 19.02 31 18 31 C15.69 27.7 13.38 24.4 11 21 C10.67 30.57 10.34 40.14 10 50 C6.7 50 3.4 50 0 50 C0 33.5 0 17 0 0 Z " fill="#0B0B0E" transform="translate(436,25)"/>
<path d="M0 0 C1.65 0.33 3.3 0.66 5 1 C2.51321323 9.69356196 -0.01917545 18.28660926 -3.21875 26.75 C-4.16219742 29.46712856 -4.6910717 32.14241324 -5 35 C-5.66 35 -6.32 35 -7 35 C-7.66 36.98 -8.32 38.96 -9 41 C-10.0625 39.125 -10.0625 39.125 -11 37 C-10.67 36.34 -10.34 35.68 -10 35 C-10 34.34 -10 33.68 -10 33 C-9.34 33 -8.68 33 -8 33 C-8.33 32.34 -8.66 31.68 -9 31 C-9.99 31 -10.98 31 -12 31 C-12 30.01 -12 29.02 -12 28 C-11.34 28 -10.68 28 -10 28 C-9.79375 26.845 -9.5875 25.69 -9.375 24.5 C-8.3201543 19.7149753 -6.71465671 15.20429992 -5 10.625 C-4.73880371 9.92310547 -4.47760742 9.22121094 -4.20849609 8.49804688 C-3.0279388 5.40272883 -1.84554135 2.76831202 0 0 Z " fill="#171A1D" transform="translate(386,26)"/>
<path d="M0 0 C2.04119788 1.61594832 4.04072937 3.2856382 6 5 C6 5.66 6 6.32 6 7 C6.5676709 7.24169922 7.1353418 7.48339844 7.72021484 7.73242188 C10.44725656 9.2486781 12.28538965 11.05997226 14.4765625 13.28125 C15.311875 14.12300781 16.1471875 14.96476562 17.0078125 15.83203125 C17.87148438 16.71246094 18.73515625 17.59289062 19.625 18.5 C20.49640625 19.38042969 21.3678125 20.26085937 22.265625 21.16796875 C23.8767826 22.79658471 25.48588267 24.42724047 27.09228516 26.06054688 C28.38932339 27.37916368 29.69212797 28.69212797 31 30 C28.21788056 29.62403791 26.4120716 29.32681541 24.1875 27.5625 C23 26 23 26 23 24 C22.4225 23.7525 21.845 23.505 21.25 23.25 C18.67060021 21.81700012 16.93878408 20.21575324 15 18 C15 17.34 15 16.68 15 16 C14.443125 15.7525 13.88625 15.505 13.3125 15.25 C9.27997872 13.07025877 6.19355981 10.34603512 3.3125 6.8125 C1.30609749 3.98352767 1.30609749 3.98352767 -1 3 C-1 3.99 -1 4.98 -1 6 C-1.78375 6.185625 -2.5675 6.37125 -3.375 6.5625 C-6.39376342 7.83961627 -6.39376342 7.83961627 -7.3125 11.625 C-7.6528125 13.295625 -7.6528125 13.295625 -8 15 C-7.505 15.45375 -7.01 15.9075 -6.5 16.375 C-5 18 -5 18 -5 20 C-4.41734375 20.2475 -3.8346875 20.495 -3.234375 20.75 C-0.66885764 22.18525446 0.83724798 23.77663013 2.75 26 C3.36359375 26.70125 3.9771875 27.4025 4.609375 28.125 C6 30 6 30 6 32 C6.59941406 32.09796875 7.19882812 32.1959375 7.81640625 32.296875 C10.44261555 33.14252379 11.25030229 34.10010818 12.9375 36.25 C15.47001618 39.37536985 18.11446287 42.19933161 21 45 C13.97340749 45 7.07483647 35.14071781 2.3125 30.4375 C-10.90289241 17.03465522 -10.90289241 17.03465522 -11 12 C-9.19921875 9.140625 -9.19921875 9.140625 -6.6875 6.25 C-5.86636719 5.28578125 -5.04523437 4.3215625 -4.19921875 3.328125 C-2 1 -2 1 0 0 Z " fill="#5C43B5" transform="translate(35,55)"/>
<path d="M0 0 C1.59660706 2.88909849 2 4.69058796 2 8 C2.66 8.33 3.32 8.66 4 9 C4.5 11 4.5 11 5 14 C5.34696871 15.60573891 5.70158556 17.209838 6.0625 18.8125 C6.23910156 19.60269531 6.41570312 20.39289062 6.59765625 21.20703125 C6.73042969 21.79871094 6.86320312 22.39039062 7 23 C5.35 23.99 3.7 24.98 2 26 C1.15675328 24.421924 0.32576082 22.8372958 -0.5 21.25 C-0.9640625 20.36828125 -1.428125 19.4865625 -1.90625 18.578125 C-3 16 -3 16 -3 12 C-3.99 12 -4.98 12 -6 12 C-7.99785435 7.8794254 -8.17835515 4.54805635 -8 0 C-4.65284689 -1.1157177 -3.28928478 -1.1807689 0 0 Z M2 21 C2.33 21.66 2.66 22.32 3 23 C3.99 22.34 4.98 21.68 6 21 C4.68 21 3.36 21 2 21 Z " fill="#14171A" transform="translate(358,27)"/>
<path d="M0 0 C0.99 0.33 1.98 0.66 3 1 C2.5148291 1.32387695 2.0296582 1.64775391 1.52978516 1.98144531 C-0.84757593 5.1183782 -0.46098149 8.51025542 -0.4765625 12.296875 C-0.49993179 13.53561371 -0.49993179 13.53561371 -0.52377319 14.79937744 C-0.57129958 17.44957345 -0.59897231 20.09951338 -0.625 22.75 C-0.91608563 43.30600744 -0.91608563 43.30600744 -1.3046875 51.5234375 C-1.35351074 52.68794434 -1.40233398 53.85245117 -1.45263672 55.05224609 C-2.42234374 60.27447738 -5.86608208 62.13114392 -10 65 C-11.6548173 66.57338978 -13.27985764 68.1786406 -14.875 69.8125 C-15.98488281 70.93591797 -15.98488281 70.93591797 -17.1171875 72.08203125 C-17.73851562 72.71496094 -18.35984375 73.34789063 -19 74 C-19.99 74.99 -19.99 74.99 -21 76 C-20.38722388 73.03824877 -19.74627478 71.61941217 -18 69 C-18.33 68.01 -18.66 67.02 -19 66 C-18.01 65.01 -18.01 65.01 -17 64 C-15.33333333 64 -13.66666667 64 -12 64 C-12.495 62.515 -12.495 62.515 -13 61 C-11.865625 60.525625 -10.73125 60.05125 -9.5625 59.5625 C-6.24259834 58.36377917 -6.24259834 58.36377917 -5 57 C-4.0270112 49.12991503 -3.91755171 41.16288836 -3.7890625 33.2421875 C-3.77470154 32.3983551 -3.76034058 31.55452271 -3.74554443 30.68511963 C-3.68813443 27.18856146 -3.63304079 23.69218233 -3.59863281 20.1953125 C-3.57111118 17.60638073 -3.52534107 15.01829423 -3.4765625 12.4296875 C-3.47330963 11.64117401 -3.47005676 10.85266052 -3.46670532 10.04025269 C-3.37058745 5.77396285 -3.08012536 3.08626311 0 0 Z " fill="#4F2BBF" transform="translate(22,26)"/>
<path d="M0 0 C9.57 0 19.14 0 29 0 C29 3.3 29 6.6 29 10 C27.68 9.67 26.36 9.34 25 9 C25.66 8.67 26.32 8.34 27 8 C27 6.02 27 4.04 27 2 C18.75 2 10.5 2 2 2 C2 17.84 2 33.68 2 50 C1.34 50 0.68 50 0 50 C0 33.5 0 17 0 0 Z " fill="#0B0C0F" transform="translate(314,25)"/>
<path d="M0 0 C3.3 0 6.6 0 10 0 C10.33 16.5 10.66 33 11 50 C8.03 50 5.06 50 2 50 C1.34 49.01 0.68 48.02 0 47 C3.11227195 47 5.94152152 47.45627049 9 48 C8.67 47.34 8.34 46.68 8 46 C7.91065594 44.58026727 7.88241022 43.15642209 7.88647461 41.73388672 C7.88655014 40.85312469 7.88662567 39.97236267 7.88670349 39.06491089 C7.89186478 38.11278717 7.89702606 37.16066345 7.90234375 36.1796875 C7.9037587 35.20589142 7.90517365 34.23209534 7.90663147 33.22879028 C7.91224027 30.11082927 7.92479427 26.9929394 7.9375 23.875 C7.94251387 21.76432395 7.94707697 19.65364678 7.95117188 17.54296875 C7.96221255 12.36195479 7.97895927 7.18098248 8 2 C3.87026372 2.56739868 3.87026372 2.56739868 0 4 C0 11.92 0 19.84 0 28 C-2 26 -2 26 -2.15112305 23.49389648 C-2.10511963 22.46337158 -2.05911621 21.43284668 -2.01171875 20.37109375 C-1.96466797 19.25412109 -1.91761719 18.13714844 -1.86914062 16.98632812 C-1.80919922 15.81521484 -1.74925781 14.64410156 -1.6875 13.4375 C-1.61499023 11.6750293 -1.61499023 11.6750293 -1.54101562 9.87695312 C-1.14238423 1.14238423 -1.14238423 1.14238423 0 0 Z " fill="#09090B" transform="translate(162,25)"/>
<path d="M0 0 C3.06713244 1.36242426 5.11840293 2.89699705 7.4375 5.3125 C7.99308594 5.88613281 8.54867187 6.45976563 9.12109375 7.05078125 C10.05115234 8.01564453 10.05115234 8.01564453 11 9 C13.90068128 11.91592129 16.82007228 14.81263108 19.7421875 17.70703125 C21.11984395 19.0754682 22.49744694 20.44395897 23.875 21.8125 C24.55691406 22.48603516 25.23882812 23.15957031 25.94140625 23.85351562 C29.94255905 27.83561531 33.75657177 31.91147811 37.41870117 36.20825195 C39.01810341 38.02051272 40.69900498 39.69668852 42.4375 41.375 C45 44 45 44 45 46 C45.66 46 46.32 46 47 46 C48.625 48 48.625 48 50 50 C50.33 48.02 50.66 46.04 51 44 C52.42944945 46.35438733 53.08661261 47.48032433 52.625 50.25 C52.41875 50.8275 52.2125 51.405 52 52 C48 52 48 52 46.203125 50.41015625 C45.55859375 49.63542969 44.9140625 48.86070313 44.25 48.0625 C39.2884383 42.28500041 34.0940787 36.76278945 28.84863281 31.24243164 C24.97876768 27.15275282 21.2141445 23.00177351 17.55957031 18.71801758 C15.25261693 16.17668524 12.67387179 14.15072296 10 12 C8.31288577 10.3540349 6.6454378 8.68762851 5 7 C4.071875 6.113125 3.14375 5.22625 2.1875 4.3125 C0 2 0 2 0 0 Z " fill="#4F39B9" transform="translate(25,1)"/>
<path d="M0 0 C0.33 0 0.66 0 1 0 C1.10150385 6.60183567 1.17150894 13.20346976 1.21972656 19.8059082 C1.2398294 22.05142741 1.26711605 24.29689435 1.30175781 26.54223633 C1.3503331 29.7717784 1.37298237 33.00062775 1.390625 36.23046875 C1.41127014 37.23272995 1.43191528 38.23499115 1.45318604 39.2676239 C1.45461757 43.72441136 1.42926696 46.28288141 -0.89941406 50.1730957 C-3 52 -3 52 -5 52 C-5.226875 52.556875 -5.45375 53.11375 -5.6875 53.6875 C-7.37550036 56.66159588 -9.46676517 58.72008865 -12 61 C-12.66 61 -13.32 61 -14 61 C-14 61.66 -14 62.32 -14 63 C-16.78385983 66.06938391 -18.74233917 67.85338433 -23 68.12988281 C-28.02695313 68.06660953 -33.00804992 67.56713944 -38 67 C-38 66.67 -38 66.34 -38 66 C-32.39 66 -26.78 66 -21 66 C-20.67 64.68 -20.34 63.36 -20 62 C-17.6875 60.875 -17.6875 60.875 -15 60 C-11.89234082 58.80938367 -11.89234082 58.80938367 -10.10890198 56.1529541 C-8.8632506 53.73449846 -7.39085073 52.31630702 -5.44506836 50.42773438 C-1.14784213 45.59921193 -0.92851252 41.43896799 -0.87890625 35.15625 C-0.84441879 34.14655151 -0.80993134 33.13685303 -0.7743988 32.09655762 C-0.67230837 28.89769298 -0.61670051 25.699998 -0.5625 22.5 C-0.50112294 20.32022371 -0.43670082 18.14053091 -0.36914062 15.9609375 C-0.21085592 10.64108385 -0.09062523 5.3214135 0 0 Z " fill="#5438BA" transform="translate(93,35)"/>
<path d="M0 0 C5.66406471 3.03925424 7.95403314 8.78344603 10.5625 14.375 C9.2425 15.695 7.9225 17.015 6.5625 18.375 C3.74550938 16.49700625 1.12268518 14.58921421 -1.4375 12.375 C-1.4375 11.715 -1.4375 11.055 -1.4375 10.375 C-2.0975 10.045 -2.7575 9.715 -3.4375 9.375 C-3.81813221 7.0489143 -4.15019945 4.71444736 -4.4375 2.375 C-4.7675 1.715 -5.0975 1.055 -5.4375 0.375 C-2.4375 -0.625 -2.4375 -0.625 0 0 Z " fill="#14161A" transform="translate(226.4375,26.625)"/>
<path d="M0 0 C2.86207152 1.28299758 5.0245088 2.530636 7 5 C7 5.99 7 6.98 7 8 C5.515 8.8971875 5.515 8.8971875 4 9.8125 C3.01 10.534375 2.02 11.25625 1 12 C0.49830585 15.16926564 0.49830585 15.16926564 1 18 C-2 18 -2 18 -4.625 15.6875 C-7 13 -7 13 -8 10 C-6.54686539 6.69008228 -5.59192118 5.28907779 -2.3125 3.6875 C-1.549375 3.460625 -0.78625 3.23375 0 3 C0 2.01 0 1.02 0 0 Z " fill="#6E49DB" transform="translate(34,58)"/>
<path d="M0 0 C-0.50660156 0.90492187 -0.50660156 0.90492187 -1.0234375 1.828125 C-1.46945312 2.62734375 -1.91546875 3.4265625 -2.375 4.25 C-2.81585938 5.03890625 -3.25671875 5.8278125 -3.7109375 6.640625 C-5.00653377 8.93961336 -5.00653377 8.93961336 -5.9765625 11.171875 C-7 13 -7 13 -10 15 C-10.33 15.99 -10.66 16.98 -11 18 C-12.98 17.67 -14.96 17.34 -17 17 C-15.53967505 11.68972746 -13.01679014 7.53669968 -10 3 C-10.66 2.67 -11.32 2.34 -12 2 C-8.09971775 -0.60018816 -4.52565431 -0.15085514 0 0 Z " fill="#131619" transform="translate(258,27)"/>
<path d="M0 0 C0.66 0 1.32 0 2 0 C3.82089479 3.64178957 3.05121113 8.00553148 3 12 C8.61 12 14.22 12 20 12 C20 14.97 20 17.94 20 21 C14.39 21 8.78 21 3 21 C3 24.63 3 28.26 3 32 C2.01 31.01 1.02 30.02 0 29 C0.109375 26.7734375 0.109375 26.7734375 0.75 24.375 C0.95109375 23.57835938 1.1521875 22.78171875 1.359375 21.9609375 C2 20 2 20 3 19 C5.53049402 18.92686433 8.03304837 18.90752473 10.5625 18.9375 C11.27341797 18.94201172 11.98433594 18.94652344 12.71679688 18.95117188 C14.47790013 18.96299136 16.23896036 18.98092737 18 19 C18 17.35 18 15.7 18 14 C12.39 14 6.78 14 1 14 C0 10 0 10 1 8 C0.69972883 6.32706064 0.36442233 4.66014616 0 3 C0 2.01 0 1.02 0 0 Z " fill="#08090C" transform="translate(189,33)"/>
<path d="M0 0 C0 5.94 0 11.88 0 18 C-0.33 18 -0.66 18 -1 18 C-1.33 15.36 -1.66 12.72 -2 10 C-4.31 10.66 -6.62 11.32 -9 12 C-9.33 14.31 -9.66 16.62 -10 19 C-10.99 19.33 -11.98 19.66 -13 20 C-13.66 20.66 -14.32 21.32 -15 22 C-15.84811399 19.28603523 -16.31066778 17.77012105 -16 15 C-14.05718192 11.93098793 -11.76221365 9.35798727 -9 7 C-8.34 7 -7.68 7 -7 7 C-6.67 6.01 -6.34 5.02 -6 4 C-2.45714286 0 -2.45714286 0 0 0 Z " fill="#6E4DE1" transform="translate(93,3)"/>
<path d="M0 0 C0.99 0.495 0.99 0.495 2 1 C2.44921875 3.14453125 2.44921875 3.14453125 2.6875 5.8125 C2.77386719 6.68519531 2.86023438 7.55789062 2.94921875 8.45703125 C2.99741297 10.87044965 2.7107703 12.70736498 2 15 C4.64 15.33 7.28 15.66 10 16 C9.67 17.32 9.34 18.64 9 20 C7.68 19.67 6.36 19.34 5 19 C4.67 19.66 4.34 20.32 4 21 C4.33 21.99 4.66 22.98 5 24 C4.34 24 3.68 24 3 24 C2.34 25.98 1.68 27.96 1 30 C0.67 30 0.34 30 0 30 C0 20.1 0 10.2 0 0 Z " fill="#5D2FDF" transform="translate(0,72)"/>
<path d="M0 0 C3.76651128 0.54876323 5.26652261 2.00763849 7.6875 4.875 C8.59048828 5.92300781 8.59048828 5.92300781 9.51171875 6.9921875 C11 9 11 9 12 12 C13.32407669 12.68486725 14.65909241 13.34870203 16 14 C18.25 16 18.25 16 20 18 C20 18.66 20 19.32 20 20 C20.5775 20.2475 21.155 20.495 21.75 20.75 C24.32939979 22.18299988 26.06121592 23.78424676 28 26 C28 26.66 28 27.32 28 28 C28.66 28 29.32 28 30 28 C30 28.66 30 29.32 30 30 C31.32 30.66 32.64 31.32 34 32 C33.505 32.99 33.505 32.99 33 34 C31 32.625 31 32.625 29 31 C29 30.34 29 29.68 29 29 C28.40614502 28.7313916 27.81229004 28.4627832 27.20043945 28.18603516 C24.99012555 26.99467768 23.55352817 25.79788102 21.79296875 24.0234375 C21.20950684 23.43876709 20.62604492 22.85409668 20.02490234 22.25170898 C19.41855957 21.63239502 18.8122168 21.01308105 18.1875 20.375 C17.56311035 19.74343994 16.9387207 19.11187988 16.29541016 18.46118164 C10.51472658 12.57859256 5.07924691 6.50143605 0 0 Z " fill="#5136AF" transform="translate(32,33)"/>
<path d="M0 0 C1.7074998 1.28062485 3.37373596 2.61767557 5 4 C5 4.66 5 5.32 5 6 C5.5676709 6.24169922 6.1353418 6.48339844 6.72021484 6.73242188 C9.44725656 8.2486781 11.28538965 10.05997226 13.4765625 12.28125 C14.311875 13.12300781 15.1471875 13.96476562 16.0078125 14.83203125 C16.87148438 15.71246094 17.73515625 16.59289062 18.625 17.5 C19.49640625 18.38042969 20.3678125 19.26085937 21.265625 20.16796875 C22.8767826 21.79658471 24.48588267 23.42724047 26.09228516 25.06054688 C27.38932339 26.37916368 28.69212797 27.69212797 30 29 C27.21788056 28.62403791 25.4120716 28.32681541 23.1875 26.5625 C22 25 22 25 22 23 C21.4225 22.7525 20.845 22.505 20.25 22.25 C17.67060021 20.81700012 15.93878408 19.21575324 14 17 C14 16.34 14 15.68 14 15 C13.443125 14.7525 12.88625 14.505 12.3125 14.25 C7.13738454 11.45264029 3.47330066 7.6641466 0 3 C0 2.01 0 1.02 0 0 Z " fill="#4A2DBC" transform="translate(36,56)"/>
<path d="M0 0 C3.63 0 7.26 0 11 0 C10.01187178 4.94064111 8.94389094 6.92600136 6.125 10.9375 C3.98168899 14.00219747 2.0567025 16.88250452 0.4296875 20.25390625 C-1 23 -1 23 -4 25 C-4.33 24.01 -4.66 23.02 -5 22 C-4.67 21.34 -4.34 20.68 -4 20 C-3.34 20 -2.68 20 -2 20 C-1.89429688 19.42121094 -1.78859375 18.84242187 -1.6796875 18.24609375 C-0.9011107 15.67321064 0.20578583 14.15939839 1.875 12.0625 C4.1456338 9.14233393 6.1823909 6.23130507 8 3 C2.42169984 2.87530901 2.42169984 2.87530901 -3 4 C-2.34 3.67 -1.68 3.34 -1 3 C-0.67 2.01 -0.34 1.02 0 0 Z " fill="#06070A" transform="translate(249,25)"/>
<path d="M0 0 C0.66 0.66 1.32 1.32 2 2 C1.566875 2.83144531 1.566875 2.83144531 1.125 3.6796875 C0.75375 4.40414062 0.3825 5.12859375 0 5.875 C-0.37125 6.59429687 -0.7425 7.31359375 -1.125 8.0546875 C-2.13673746 9.94848977 -2.13673746 9.94848977 -2 12 C-2.66 12 -3.32 12 -4 12 C-4.33 13.32 -4.66 14.64 -5 16 C-8.3 16 -11.6 16 -15 16 C-19.42857143 6.42857143 -19.42857143 6.42857143 -20 2 C-19.01 2.33 -18.02 2.66 -17 3 C-16.05078125 5.50390625 -16.05078125 5.50390625 -15.3125 8.5625 C-15.06113281 9.57441406 -14.80976563 10.58632812 -14.55078125 11.62890625 C-14.36902344 12.41136719 -14.18726563 13.19382812 -14 14 C-11.36 14 -8.72 14 -6 14 C-5.896875 13.13375 -5.79375 12.2675 -5.6875 11.375 C-4.96601586 7.83316877 -3.72876739 5.15687958 -2 2 C-1.34 2 -0.68 2 0 2 C0 1.34 0 0.68 0 0 Z " fill="#09090C" transform="translate(381,59)"/>
<path d="M0 0 C0.99 0 1.98 0 3 0 C3.19907807 3.49944037 3.38213327 6.9995493 3.5625 10.5 C3.61857422 11.48226563 3.67464844 12.46453125 3.73242188 13.4765625 C4.01593713 19.14686761 3.90129458 24.39194484 3 30 C0.45491964 25.41885535 -0.12952121 21.1119571 -0.09765625 15.91796875 C-0.09443359 14.98662109 -0.09121094 14.05527344 -0.08789062 13.09570312 C-0.07951172 12.13599609 -0.07113281 11.17628906 -0.0625 10.1875 C-0.05798828 9.20845703 -0.05347656 8.22941406 -0.04882812 7.22070312 C-0.03708684 4.81373889 -0.02066419 2.40690143 0 0 Z " fill="#432CE2" transform="translate(75,19)"/>
<path d="M0 0 C0.99 0.33 1.98 0.66 3 1 C2.67 9.25 2.34 17.5 2 26 C-1.3 26 -4.6 26 -8 26 C-9 25 -9 25 -9.09765625 22.93359375 C-9.08605469 22.10988281 -9.07445312 21.28617188 -9.0625 20.4375 C-9.05347656 19.61121094 -9.04445312 18.78492187 -9.03515625 17.93359375 C-9.02355469 17.29550781 -9.01195312 16.65742187 -9 16 C-8.67 16 -8.34 16 -8 16 C-7.67 18.31 -7.34 20.62 -7 23 C-5.15274948 23.69159401 -5.15274948 23.69159401 -3 24 C-2.01 23.34 -1.02 22.68 0 22 C0.41609272 19.67699616 0.41609272 19.67699616 0.29296875 16.9921875 C0.28330078 16.00605469 0.27363281 15.01992187 0.26367188 14.00390625 C0.23853516 12.97136719 0.21339844 11.93882813 0.1875 10.875 C0.17396484 9.83472656 0.16042969 8.79445313 0.14648438 7.72265625 C0.11105228 5.14792373 0.06165221 2.5742167 0 0 Z " fill="#0C0D0F" transform="translate(140,49)"/>
<path d="M0 0 C3.3 0 6.6 0 10 0 C10 1.98 10 3.96 10 6 C9.34 6 8.68 6 8 6 C8 4.68 8 3.36 8 2 C6.35 2.66 4.7 3.32 3 4 C2.67 9.61 2.34 15.22 2 21 C-0.25 16.5 -0.25 16.5 -0.1953125 12.890625 C-0.18886719 12.13652344 -0.18242187 11.38242187 -0.17578125 10.60546875 C-0.15902344 9.82816406 -0.14226562 9.05085938 -0.125 8.25 C-0.11597656 7.45722656 -0.10695313 6.66445313 -0.09765625 5.84765625 C-0.07417012 3.89830719 -0.03830137 1.94911425 0 0 Z " fill="#050606" transform="translate(296,25)"/>
<path d="M0 0 C0.66 0 1.32 0 2 0 C2 2.64 2 5.28 2 8 C8.27 8 14.54 8 21 8 C21 8.66 21 9.32 21 10 C17.68794116 10.19592461 14.37534146 10.38032746 11.0625 10.5625 C9.64420898 10.64661133 9.64420898 10.64661133 8.19726562 10.73242188 C6.84858398 10.80493164 6.84858398 10.80493164 5.47265625 10.87890625 C4.64000244 10.9260376 3.80734863 10.97316895 2.94946289 11.02172852 C1 11 1 11 0 10 C-0.07205511 8.31391034 -0.08386068 6.62499341 -0.0625 4.9375 C-0.05347656 4.01839844 -0.04445313 3.09929688 -0.03515625 2.15234375 C-0.02355469 1.44207031 -0.01195312 0.73179688 0 0 Z " fill="#0B0B0D" transform="translate(323,57)"/>
<path d="M0 0 C2 2 2 2 2.1953125 4.3828125 C2.13020833 6.921875 2.06510417 9.4609375 2 12 C7.61 12 13.22 12 19 12 C19 12.66 19 13.32 19 14 C12.73 14 6.46 14 0 14 C0 9.38 0 4.76 0 0 Z " fill="#09090C" transform="translate(323,33)"/>
<path d="M0 0 C1.32 0.99 2.64 1.98 4 3 C3.67 3.99 3.34 4.98 3 6 C1.88625 6.28875 0.7725 6.5775 -0.375 6.875 C-4.1371769 7.63089443 -4.1371769 7.63089443 -5.75 10.5625 C-6.1625 11.366875 -6.575 12.17125 -7 13 C-7.99 13.33 -8.98 13.66 -10 14 C-10.2421875 11.73046875 -10.2421875 11.73046875 -10 9 C-8.3203125 7.05078125 -8.3203125 7.05078125 -6.125 5.3125 C-5.40570312 4.73113281 -4.68640625 4.14976562 -3.9453125 3.55078125 C-3.30335937 3.03902344 -2.66140625 2.52726563 -2 2 C-1.34 1.34 -0.68 0.68 0 0 Z " fill="#522FCC" transform="translate(24,1)"/>
<path d="M0 0 C1.875 0.25 1.875 0.25 4 1 C4.66666667 2.33333333 5.33333333 3.66666667 6 5 C6.62003906 5.13921875 7.24007812 5.2784375 7.87890625 5.421875 C10.520917 6.14198106 11.26445269 7.11813916 12.9375 9.25 C15.47001618 12.37536985 18.11446287 15.19933161 21 18 C17.01779104 18 16.19397428 16.67791645 13.3125 14 C12.43464844 13.1853125 11.55679688 12.370625 10.65234375 11.53125 C2.59723847 3.84390358 2.59723847 3.84390358 0 1 C0 0.67 0 0.34 0 0 Z " fill="#5231B8" transform="translate(35,82)"/>
<path d="M0 0 C1.64574566 -0.02688151 3.29161413 -0.04634123 4.9375 -0.0625 C5.85402344 -0.07410156 6.77054687 -0.08570312 7.71484375 -0.09765625 C10 0 10 0 11 1 C11.12658222 3.65822657 11.18520214 6.27887424 11.1875 8.9375 C11.19974609 9.67935547 11.21199219 10.42121094 11.22460938 11.18554688 C11.22988478 13.12513629 11.12188902 15.0642371 11 17 C10.34 17.66 9.68 18.32 9 19 C9 13.39 9 7.78 9 2 C2.67082039 1.47825081 2.67082039 1.47825081 0 3 C0 2.01 0 1.02 0 0 Z " fill="#0E0E0F" transform="translate(267,25)"/>
<path d="M0 0 C2.1875 0.3125 2.1875 0.3125 4 1 C3.38125 1.2475 2.7625 1.495 2.125 1.75 C-0.12331869 2.80915925 -0.12331869 2.80915925 -0.92578125 4.8984375 C-2.1148046 7.22459955 -3.27206331 8.27341555 -5.3125 9.875 C-8.68350161 12.63950341 -11.3094577 15.57567344 -14 19 C-14.66 18.67 -15.32 18.34 -16 18 C-15.56429687 17.50371094 -15.12859375 17.00742187 -14.6796875 16.49609375 C-11.20891006 12.53700347 -7.75903998 8.56335908 -4.359375 4.54296875 C-1.5560166 1.36099585 -1.5560166 1.36099585 0 0 Z " fill="#5543C9" transform="translate(91,0)"/>
<path d="M0 0 C2 2 2 2 2 4 C1.34 4 0.68 4 0 4 C-0.33 5.32 -0.66 6.64 -1 8 C-1.66 8 -2.32 8 -3 8 C-3 8.66 -3 9.32 -3 10 C-0.03 10 2.94 10 6 10 C5.67 10.99 5.34 11.98 5 13 C1.37 13 -2.26 13 -6 13 C-5.15071984 8.75359922 -4.67656891 7.07480937 -2.4375 3.6875 C-1.98246094 2.99011719 -1.52742187 2.29273437 -1.05859375 1.57421875 C-0.70925781 1.05472656 -0.35992187 0.53523438 0 0 Z " fill="#090A0C" transform="translate(223,62)"/>
<path d="M0 0 C0.66 0 1.32 0 2 0 C2 2.31 2 4.62 2 7 C-6.58 7 -15.16 7 -24 7 C-24 6.67 -24 6.34 -24 6 C-23.24074219 5.93941406 -22.48148437 5.87882812 -21.69921875 5.81640625 C-20.70535156 5.73261719 -19.71148437 5.64882812 -18.6875 5.5625 C-17.70136719 5.48128906 -16.71523438 5.40007812 -15.69921875 5.31640625 C-12.90624401 5.08187441 -12.90624401 5.08187441 -10 4 C-7.73828125 4.12109375 -7.73828125 4.12109375 -5.3125 4.4375 C-4.50425781 4.53933594 -3.69601562 4.64117187 -2.86328125 4.74609375 C-2.24839844 4.82988281 -1.63351562 4.91367188 -1 5 C-0.67 3.35 -0.34 1.7 0 0 Z " fill="#0E0F0F" transform="translate(342,68)"/>
<path d="M0 0 C0.99 0.33 1.98 0.66 3 1 C3.36253776 6.43806647 3.36253776 6.43806647 1.75 8.9375 C0 10 0 10 -2.1875 9.6875 C-2.785625 9.460625 -3.38375 9.23375 -4 9 C-3.7525 8.0409375 -3.7525 8.0409375 -3.5 7.0625 C-2.96073333 5.19173179 -2.96073333 5.19173179 -3 4 C-2.67 3.01 -2.34 2.02 -2 1 C-1.34 0.67 -0.68 0.34 0 0 Z " fill="#632EDA" transform="translate(15,76)"/>
<path d="M0 0 C0.66 0.33 1.32 0.66 2 1 C2 2.65 2 4.3 2 6 C-3.61 6 -9.22 6 -15 6 C-15 6.66 -15 7.32 -15 8 C-15.66 8 -16.32 8 -17 8 C-17 6.68 -17 5.36 -17 4 C-11.39 4 -5.78 4 0 4 C0 2.68 0 1.36 0 0 Z " fill="#0D0E10" transform="translate(340,48)"/>
<path d="M0 0 C4.15289097 3.67371124 7.23378258 8.22366459 10 13 C10 13.66 10 14.32 10 15 C10.66 15 11.32 15 12 15 C12.99 16.98 13.98 18.96 15 21 C13.68 20.34 12.36 19.68 11 19 C11 18.01 11 17.02 11 16 C10.4225 15.79375 9.845 15.5875 9.25 15.375 C6.18589456 13.50249112 4.84460032 11.03041481 3 8 C2.01 8.33 1.02 8.66 0 9 C0.185625 8.443125 0.37125 7.88625 0.5625 7.3125 C1.07551165 4.600867 0.6640724 2.65628961 0 0 Z " fill="#0B0B0E" transform="translate(141,25)"/>
<path d="M0 0 C4.60995281 0.84365149 7.32715678 3.21042092 10 7 C10.09108206 10.82544646 8.56740778 13.2271996 6 16 C5.34 16 4.68 16 4 16 C4 16.66 4 17.32 4 18 C3.01 17.67 2.02 17.34 1 17 C1.49371094 16.51789063 1.98742187 16.03578125 2.49609375 15.5390625 C3.13675781 14.90742187 3.77742188 14.27578125 4.4375 13.625 C5.07558594 12.99851562 5.71367188 12.37203125 6.37109375 11.7265625 C8.07882176 10.08276939 8.07882176 10.08276939 9 8 C8.443125 7.79375 7.88625 7.5875 7.3125 7.375 C4.07498698 5.44999226 2.31768859 2.96149098 0 0 Z " fill="#4D2CB9" transform="translate(66,67)"/>
<path d="M0 0 C9.38971583 9.04194858 9.38971583 9.04194858 11 15 C10.67 15.99 10.34 16.98 10 18 C8.8936781 16.43902526 7.79004215 14.87614673 6.6875 13.3125 C6.07261719 12.44238281 5.45773438 11.57226562 4.82421875 10.67578125 C0 3.59957173 0 3.59957173 0 0 Z " fill="#080A0D" transform="translate(145,45)"/>
<path d="M0 0 C0.33 0.66 0.66 1.32 1 2 C1.598125 2.28875 2.19625 2.5775 2.8125 2.875 C5.41864396 4.21530261 7.07663215 5.80186531 9 8 C9 8.66 9 9.32 9 10 C9.66 10 10.32 10 11 10 C11 10.66 11 11.32 11 12 C12.32 12.66 13.64 13.32 15 14 C14.67 14.66 14.34 15.32 14 16 C12 14.625 12 14.625 10 13 C10 12.34 10 11.68 10 11 C9.195625 10.690625 9.195625 10.690625 8.375 10.375 C5.09177059 8.47418297 2.30808253 6.02358811 0 3 C0 2.01 0 1.02 0 0 Z " fill="#4E31B5" transform="translate(51,51)"/>
<path d="M0 0 C3.67882073 3.28466137 5.75150101 6.66360908 8 11 C8 11.66 8 12.32 8 13 C8.99 13 9.98 13 11 13 C11 13.66 11 14.32 11 15 C9.68 15 8.36 15 7 15 C5.33203125 12.98828125 5.33203125 12.98828125 3.8125 10.3125 C3.04873047 9.00732422 3.04873047 9.00732422 2.26953125 7.67578125 C1.03664901 5.07724483 0.42361583 2.83261189 0 0 Z " fill="#07080B" transform="translate(241,60)"/>
<path d="M0 0 C-0.33 0.99 -0.66 1.98 -1 3 C-1.99 3.33 -2.98 3.66 -4 4 C-3.67 5.32 -3.34 6.64 -3 8 C-3.99 8 -4.98 8 -6 8 C-6.33 7.01 -6.66 6.02 -7 5 C-7.66 4.67 -8.32 4.34 -9 4 C-6.3515138 0.02727069 -4.69305063 -1.56435021 0 0 Z " fill="#0E1012" transform="translate(232,32)"/>
<path d="M0 0 C0.556875 0.70125 1.11375 1.4025 1.6875 2.125 C2.89907369 3.6312808 4.11587354 5.13425574 5.37890625 6.59765625 C9 10.79647436 9 10.79647436 9 13 C9.66 13 10.32 13 11 13 C10.67 13.99 10.34 14.98 10 16 C8.62437146 14.71034824 7.29233607 13.37310707 6 12 C6 11.34 6 10.68 6 10 C5.34 10 4.68 10 4 10 C2.35 7.03 0.7 4.06 -1 1 C-0.67 0.67 -0.34 0.34 0 0 Z " fill="#090A0C" transform="translate(451,34)"/>
<path d="M0 0 C0.99 0.33 1.98 0.66 3 1 C2.5155542 1.39421143 2.0311084 1.78842285 1.53198242 2.19458008 C-0.44186491 4.52073163 -0.42012916 5.8642623 -0.51171875 8.88671875 C-0.54716797 9.82451172 -0.58261719 10.76230469 -0.61914062 11.72851562 C-0.64169922 12.70498047 -0.66425781 13.68144531 -0.6875 14.6875 C-0.72166016 15.67556641 -0.75582031 16.66363281 -0.79101562 17.68164062 C-0.87350538 20.12098053 -0.94265068 22.55996063 -1 25 C-1.33 25 -1.66 25 -2 25 C-2.05786668 21.20839703 -2.09355054 17.41690689 -2.125 13.625 C-2.14175781 12.54476562 -2.15851562 11.46453125 -2.17578125 10.3515625 C-2.18222656 9.3203125 -2.18867188 8.2890625 -2.1953125 7.2265625 C-2.20578613 6.27346191 -2.21625977 5.32036133 -2.22705078 4.33837891 C-2 2 -2 2 0 0 Z " fill="#5036B3" transform="translate(22,26)"/>
<path d="M0 0 C0.66 0 1.32 0 2 0 C2 5.94 2 11.88 2 18 C1.67 18 1.34 18 1 18 C0.67 13.71 0.34 9.42 0 5 C-1.65 5.33 -3.3 5.66 -5 6 C-3.38405168 3.95880212 -1.7143618 1.95927063 0 0 Z " fill="#664CE4" transform="translate(91,3)"/>
<path d="M0 0 C3.2542015 2.83430453 4.5206753 4.68607774 5 9 C2.36 9 -0.28 9 -3 9 C-2 7 -2 7 1 6 C0.34 4.35 -0.32 2.7 -1 1 C-0.67 0.67 -0.34 0.34 0 0 Z " fill="#0B0B0E" transform="translate(256,66)"/>
<path d="M0 0 C1.42944945 2.35438733 2.08661261 3.48032433 1.625 6.25 C1.41875 6.8275 1.2125 7.405 1 8 C-0.32 8 -1.64 8 -3 8 C-4.484375 6.46875 -4.484375 6.46875 -5.75 4.5 C-6.17796875 3.8503125 -6.6059375 3.200625 -7.046875 2.53125 C-7.51867187 1.77328125 -7.51867187 1.77328125 -8 1 C-4.21875 1.7421875 -4.21875 1.7421875 -2.25 4.0625 C-1.8375 4.701875 -1.425 5.34125 -1 6 C-0.67 4.02 -0.34 2.04 0 0 Z " fill="#5638B8" transform="translate(76,45)"/>
<path d="M0 0 C0.33 0 0.66 0 1 0 C2.32262883 7.33457804 2.32262883 7.33457804 1 10.0625 C-2.12363049 11.52670179 -4.71302493 10.68220237 -8 10 C-8 9.67 -8 9.34 -8 9 C-5.69 9 -3.38 9 -1 9 C-1.20625 8.443125 -1.4125 7.88625 -1.625 7.3125 C-2.10695211 4.340462 -1.26565028 2.68020059 0 0 Z " fill="#0E0F10" transform="translate(277,64)"/>
<path d="M0 0 C1.32 0.66 2.64 1.32 4 2 C2.6062718 6.43458973 0.39417765 8.87378374 -3 12 C-2.38722388 9.03824877 -1.74627478 7.61941217 0 5 C-0.33 4.01 -0.66 3.02 -1 2 C-0.67 1.34 -0.34 0.68 0 0 Z " fill="#5526C3" transform="translate(4,90)"/>
<path d="M0 0 C0.66 0 1.32 0 2 0 C2.67528223 1.57967807 3.33989694 3.16391903 4 4.75 C4.37125 5.63171875 4.7425 6.5134375 5.125 7.421875 C6 10 6 10 6 14 C5.34 14 4.68 14 4 14 C3.32739649 12.23141309 2.66211605 10.46003984 2 8.6875 C1.62875 7.70136719 1.2575 6.71523438 0.875 5.69921875 C0 3 0 3 0 0 Z " fill="#08090A" transform="translate(353,39)"/>
<path d="M0 0 C3.81684226 1.55500981 6.19195732 4.03595495 9 7 C8.34 7.66 7.68 8.32 7 9 C5.82737096 7.88121617 4.66204862 6.75476949 3.5 5.625 C2.8503125 4.99851562 2.200625 4.37203125 1.53125 3.7265625 C0 2 0 2 0 0 Z " fill="#693DE1" transform="translate(34,77)"/>
<path d="M0 0 C0.33 0.66 0.66 1.32 1 2 C0.0625 4.625 0.0625 4.625 -1 7 C-1.66 7 -2.32 7 -3 7 C-3.66 8.65 -4.32 10.3 -5 12 C-5.66 11.67 -6.32 11.34 -7 11 C-5.5140084 6.40693504 -3.14985318 3.56430755 0 0 Z " fill="#060609" transform="translate(236,60)"/>
<path d="M0 0 C3 0 3 0 5.5 2.3125 C6.325 3.199375 7.15 4.08625 8 5 C8.598125 5.556875 9.19625 6.11375 9.8125 6.6875 C11 8 11 8 11 10 C10.01 10.33 9.02 10.66 8 11 C8 9.68 8 8.36 8 7 C7.13375 6.938125 7.13375 6.938125 6.25 6.875 C2.86687535 5.55934042 1.80777315 3.03447636 0 0 Z " fill="#6D53E3" transform="translate(32,11)"/>
<path d="M0 0 C0.33 0 0.66 0 1 0 C1.06058594 0.69867188 1.12117187 1.39734375 1.18359375 2.1171875 C1.26738281 3.02726562 1.35117188 3.93734375 1.4375 4.875 C1.55931641 6.23238281 1.55931641 6.23238281 1.68359375 7.6171875 C1.86989285 10.01110861 1.86989285 10.01110861 3 12 C5.02463255 12.65213292 5.02463255 12.65213292 7 13 C4.69 13.33 2.38 13.66 0 14 C-1.03115279 10.73086376 -0.9638984 8.13958652 -0.5625 4.75 C-0.46066406 3.85796875 -0.35882813 2.9659375 -0.25390625 2.046875 C-0.17011719 1.37140625 -0.08632812 0.6959375 0 0 Z " fill="#222226" transform="translate(134,60)"/>
<path d="M0 0 C2.94721162 2.74395564 5.19168608 5.38337216 7 9 C6.67 9.66 6.34 10.32 6 11 C4 9.1875 4 9.1875 2 7 C2 6.01 2 5.02 2 4 C1.01 3.67 0.02 3.34 -1 3 C-0.67 2.01 -0.34 1.02 0 0 Z " fill="#07090B" transform="translate(249,55)"/>
<path d="M0 0 C0 1.98 0 3.96 0 6 C-0.66 6 -1.32 6 -2 6 C-2 4.68 -2 3.36 -2 2 C-3.65 2.66 -5.3 3.32 -7 4 C-7.33 3.01 -7.66 2.02 -8 1 C-5.07175348 0.02391783 -3.04386724 -0.08226668 0 0 Z " fill="#0C0D10" transform="translate(306,25)"/>
<path d="M0 0 C2.6875 0.875 2.6875 0.875 5 2 C3.68 3.65 2.36 5.3 1 7 C-0.32 5.35 -1.64 3.7 -3 2 C-2.01 1.34 -1.02 0.68 0 0 Z " fill="#7252DD" transform="translate(30,22)"/>
<path d="M0 0 C0.33 0.99 0.66 1.98 1 3 C-1.64 5.97 -4.28 8.94 -7 12 C-7.66 11.67 -8.32 11.34 -9 11 C-8.51789063 10.45730469 -8.03578125 9.91460937 -7.5390625 9.35546875 C-6.90742187 8.64003906 -6.27578125 7.92460937 -5.625 7.1875 C-4.68527344 6.12595703 -4.68527344 6.12595703 -3.7265625 5.04296875 C-1.859401 2.91196181 -1.859401 2.91196181 0 0 Z " fill="#5B45B6" transform="translate(84,7)"/>
<path d="M0 0 C0.33 0 0.66 0 1 0 C1 4.29 1 8.58 1 13 C0.01 12.67 -0.98 12.34 -2 12 C-1.34 12 -0.68 12 0 12 C-0.350625 11.2575 -0.70125 10.515 -1.0625 9.75 C-2.06789411 6.80084393 -2.04332005 5.84541832 -1 3 C-0.67 2.01 -0.34 1.02 0 0 Z " fill="#6F4BE7" transform="translate(91,68)"/>
<path d="M0 0 C1.32 0.99 2.64 1.98 4 3 C3.67 3.99 3.34 4.98 3 6 C0.69 6.33 -1.62 6.66 -4 7 C-3.525625 6.21625 -3.05125 5.4325 -2.5625 4.625 C-1.66101977 3.11051322 -0.78820515 1.5764103 0 0 Z " fill="#4824E2" transform="translate(24,1)"/>
<path d="M0 0 C0.33 0.66 0.66 1.32 1 2 C1.61875 2.268125 2.2375 2.53625 2.875 2.8125 C5.64126132 4.35835192 6.54655436 6.23845328 8 9 C4.86493389 8.66410006 3.974751 7.97334828 1.75 5.625 C0 3 0 3 0 0 Z " fill="#5A3AC4" transform="translate(29,73)"/>
<path d="M0 0 C3.5371438 0.56132934 4.99261679 1.69557747 7.25 4.4375 C8.03117187 5.36369141 8.03117187 5.36369141 8.828125 6.30859375 C10 8 10 8 10 10 C8 10 8 10 6.30859375 8.3203125 C5.69113281 7.59585938 5.07367188 6.87140625 4.4375 6.125 C3.50744141 5.04605469 3.50744141 5.04605469 2.55859375 3.9453125 C1 2 1 2 0 0 Z " fill="#573FB4" transform="translate(32,33)"/>
<path d="M0 0 C0 1.65 0 3.3 0 5 C-1.65 5.66 -3.3 6.32 -5 7 C-5.33 6.34 -5.66 5.68 -6 5 C-5.67 4.34 -5.34 3.68 -5 3 C-4.34 3 -3.68 3 -3 3 C-3 2.34 -3 1.68 -3 1 C-1 0 -1 0 0 0 Z " fill="#7255D9" transform="translate(92,7)"/>
<path d="M0 0 C-0.804375 0.226875 -1.60875 0.45375 -2.4375 0.6875 C-3.283125 1.120625 -4.12875 1.55375 -5 2 C-5.89386164 4.54775306 -5.89386164 4.54775306 -6 7 C-6.66 7 -7.32 7 -8 7 C-8 5.02 -8 3.04 -8 1 C-4.93251126 -0.86240388 -3.40254489 -1.2151946 0 0 Z " fill="#6436E0" transform="translate(26,8)"/>
<path d="M0 0 C3.78611227 0.54087318 5.55400767 2.11722332 8 5 C8 5.66 8 6.32 8 7 C4.2047869 5.50902342 2.38957269 3.24299151 0 0 Z " fill="#5535B7" transform="translate(66,67)"/>
<path d="M0 0 C2.5 1.3125 2.5 1.3125 5 3 C5 3.99 5 4.98 5 6 C5.99 6.33 6.98 6.66 8 7 C7.34 7.66 6.68 8.32 6 9 C4.99406757 7.8803014 3.9954151 6.7540588 3 5.625 C2.443125 4.99851562 1.88625 4.37203125 1.3125 3.7265625 C0 2 0 2 0 0 Z " fill="#553FBF" transform="translate(25,24)"/>
<path d="M0 0 C0.5534764 2.07553648 1 3.84365964 1 6 C1.99 6.33 2.98 6.66 4 7 C3.01 7.495 3.01 7.495 2 8 C1.01 7.67 0.02 7.34 -1 7 C-1.625 4.625 -1.625 4.625 -2 2 C-1.34 1.34 -0.68 0.68 0 0 Z " fill="#020305" transform="translate(368,49)"/>
<path d="M0 0 C3.75376152 1.25125384 4.24073289 2.5652404 6 6 C6 6.66 6 7.32 6 8 C2.24623848 6.74874616 1.75926711 5.4347596 0 2 C0 1.34 0 0.68 0 0 Z " fill="#050508" transform="translate(228,41)"/>
<path d="M0 0 C1.98 0 3.96 0 6 0 C5.3503125 0.61875 5.3503125 0.61875 4.6875 1.25 C2.94161728 3.06054505 1.47380729 4.96474232 0 7 C0 4.69 0 2.38 0 0 Z " fill="#0F1011" transform="translate(132,25)"/>
<path d="M0 0 C2.88437779 1.29299694 4.87219421 2.65941363 7 5 C6.67 5.99 6.34 6.98 6 8 C1.125 3.375 1.125 3.375 0 0 Z " fill="#4B30BB" transform="translate(25,1)"/>
<path d="M0 0 C0.33 0 0.66 0 1 0 C1 1.65 1 3.3 1 5 C-2.69418201 6.231394 -5.2056261 5.64432764 -9 5 C-9 4.67 -9 4.34 -9 4 C-6.36 3.67 -3.72 3.34 -1 3 C-0.67 2.01 -0.34 1.02 0 0 Z " fill="#1B1B1D" transform="translate(341,68)"/>
<path d="M0 0 C0.33 0 0.66 0 1 0 C1 1.65 1 3.3 1 5 C0.67 5 0.34 5 0 5 C0 3.35 0 1.7 0 0 Z " fill="#000000" transform="translate(447,47)"/>
<path d="" fill="#000000" transform="translate(0,0)"/>
<path d="M0 0 C0.99 0.495 0.99 0.495 2 1 C1.01 1.495 1.01 1.495 0 2 C0 1.34 0 0.68 0 0 Z " fill="#000000" transform="translate(410,55)"/>
<path d="" fill="#000000" transform="translate(0,0)"/>
<path d="M0 0 C2 1 2 1 2 1 Z " fill="#000000" transform="translate(293,55)"/>
<path d="" fill="#000000" transform="translate(0,0)"/>
<path d="" fill="#000000" transform="translate(0,0)"/>
<path d="" fill="#000000" transform="translate(0,0)"/>
<path d="" fill="#000000" transform="translate(0,0)"/>
<path d="" fill="#000000" transform="translate(0,0)"/>
<path d="" fill="#000000" transform="translate(0,0)"/>
<path d="" fill="#000000" transform="translate(0,0)"/>
<path d="" fill="#000000" transform="translate(0,0)"/>
<path d="" fill="#000000" transform="translate(0,0)"/>
<path d="" fill="#000000" transform="translate(0,0)"/>
<path d="" fill="#000000" transform="translate(0,0)"/>
<path d="" fill="#000000" transform="translate(0,0)"/>
<path d="" fill="#000000" transform="translate(0,0)"/>
</svg>
