<?xml version="1.0" encoding="UTF-8"?>
<svg version="1.1" xmlns="http://www.w3.org/2000/svg" width="483" height="105">
<path d="M0 0 C3.88388656 1.5818384 6.50166062 4.22809853 9.39453125 7.1640625 C9.90497482 7.67496429 10.4154184 8.18586609 10.94132996 8.71224976 C12.02031057 9.79424592 13.09686524 10.87866599 14.17114258 11.96533203 C15.79141795 13.60368276 17.41936932 15.23406937 19.04882812 16.86328125 C23.97939778 21.81112226 28.79704095 26.8074774 33.33911133 32.11865234 C36.53715643 35.74119175 40.00163146 39.10499723 43.4375 42.5 C44.16904297 43.22703125 44.90058594 43.9540625 45.65429688 44.703125 C47.43389824 46.47109499 49.21580918 48.23666378 51 50 C51.17194197 47.29191399 51.33759972 44.58366286 51.5 41.875 C51.5520459 41.0598291 51.6040918 40.2446582 51.65771484 39.40478516 C51.88323504 35.57094178 52.04700417 31.80507051 51.8203125 27.96875 C51.27691233 17.97018694 51.27691233 17.97018694 54.875 13.75 C56.23109935 12.47951995 57.60840578 11.23149931 59 10 C60.72961262 8.16708739 62.45876463 6.33374003 64.1875 4.5 C66.66796875 1.90625 66.66796875 1.90625 69 0 C70.32 0 71.64 0 73 0 C73.13834247 14.9871004 72.91918241 29.95531228 72.5625 44.9375 C72.5330278 46.23577225 72.5330278 46.23577225 72.50296021 47.56027222 C72.36919343 53.37482869 72.20183006 59.18741153 72 65 C71.97341309 65.81186768 71.94682617 66.62373535 71.91943359 67.46020508 C71.83694706 69.8063577 71.73615256 72.15095649 71.62890625 74.49609375 C71.59368614 75.54457741 71.59368614 75.54457741 71.55775452 76.61424255 C71.35536866 80.50558025 70.86675143 83.08510693 68.375 86.125 C67.42753906 86.96224609 67.42753906 86.96224609 66.4609375 87.81640625 C64.30037348 89.73347813 62.57484215 91.6344264 60.7265625 93.83984375 C50.99664181 105.09165392 50.99664181 105.09165392 44.97265625 105.98828125 C36.18679736 105.73374588 32.06881853 102.92440135 26 97 C25.12126221 96.15244141 24.24252441 95.30488281 23.3371582 94.43164062 C20.91056943 92.0673889 18.50225716 89.68795845 16.10693359 87.29223633 C14.61181864 85.79933818 13.10883044 84.31466608 11.60546875 82.83007812 C10.64534573 81.87288468 9.68569278 80.91521944 8.7265625 79.95703125 C7.86627441 79.10085205 7.00598633 78.24467285 6.11962891 77.36254883 C3.29106971 74.20982281 1.95835897 72.35061774 2.08984375 68.0859375 C3.20214739 64.31460755 4.85246604 62.44954243 7.5625 59.625 C8.38878906 58.75101563 9.21507812 57.87703125 10.06640625 56.9765625 C11.02353516 55.99816406 11.02353516 55.99816406 12 55 C13.70884005 56.62339805 15.37446717 58.29319053 17 60 C17 60.66 17 61.32 17 62 C18.32 62.66 19.64 63.32 21 64 C21 64.66 21 65.32 21 66 C22.32 66.66 23.64 67.32 25 68 C25 68.66 25 69.32 25 70 C25.99 70.33 26.98 70.66 28 71 C29.68359375 72.70703125 29.68359375 72.70703125 31.4375 74.8125 C32.05367187 75.53179687 32.66984375 76.25109375 33.3046875 76.9921875 C33.86414062 77.65476562 34.42359375 78.31734375 35 79 C37.408225 81.8460841 38.40763486 82.82722684 42 83.875 C45.19008039 84.00792002 46.50337078 83.96163725 49 82 C50.28254644 79.46229997 50.28254644 79.46229997 51 77 C50.27554688 76.27683594 49.55109375 75.55367188 48.8046875 74.80859375 C47.05459247 73.05606126 45.30900256 71.29900421 43.5703125 69.53515625 C39.78289844 65.70539092 36.0277985 61.93534347 31.875 58.5 C30.92625 57.675 29.9775 56.85 29 56 C29 55.34 29 54.68 29 54 C28.40832031 53.74605469 27.81664062 53.49210937 27.20703125 53.23046875 C24.7569027 51.86446788 23.4640418 50.47063789 21.6875 48.3125 C18.85760518 44.96369057 15.89896405 41.86745585 12.765625 38.8046875 C10.21662162 36.19929024 7.8989127 33.4103663 5.578125 30.6015625 C3.98558859 28.74308837 3.98558859 28.74308837 1 28 C0.01 28.66 -0.98 29.32 -2 30 C-2.44865802 32.20014841 -2.44865802 32.20014841 -2.36889648 34.78173828 C-2.37577988 35.77682404 -2.38266327 36.77190979 -2.38975525 37.79714966 C-2.38359695 38.8772934 -2.37743866 39.95743713 -2.37109375 41.0703125 C-2.38848679 43.35156392 -2.40607105 45.63281389 -2.42382812 47.9140625 C-2.43387703 51.51500238 -2.43750436 55.1158436 -2.43579102 58.71679688 C-2.43937416 62.18910078 -2.46678013 65.66064443 -2.49609375 69.1328125 C-2.48791122 70.20081085 -2.4797287 71.2688092 -2.47129822 72.36917114 C-2.55552064 80.8790585 -4.44596296 86.99195481 -10.6015625 93.0625 C-11.25640625 93.71347656 -11.91125 94.36445312 -12.5859375 95.03515625 C-13.25882813 95.68355469 -13.93171875 96.33195312 -14.625 97 C-15.305625 97.67933594 -15.98625 98.35867187 -16.6875 99.05859375 C-21.71838846 104 -21.71838846 104 -24 104 C-24.2559791 93.90753202 -24.45087138 83.81584802 -24.56993389 73.72078323 C-24.62710938 69.03191946 -24.70451856 64.34529171 -24.82983398 59.65771484 C-24.95023137 55.12522528 -25.01530204 50.59487175 -25.04364967 46.06090546 C-25.06382248 44.34000794 -25.10321814 42.61921465 -25.16303062 40.89923859 C-25.65852759 26.04652494 -25.65852759 26.04652494 -20.18060017 19.65449142 C-17.89612572 17.28797926 -15.49393026 15.14701313 -13 13 C-11.68157348 11.67370663 -10.37211967 10.33824887 -9.08203125 8.984375 C-7.99485683 7.90355832 -6.90513725 6.8252938 -5.8125 5.75 C-5.24208984 5.18410156 -4.67167969 4.61820312 -4.08398438 4.03515625 C-2.72507213 2.68766344 -1.36293014 1.34342875 0 0 Z " fill="#6E47D5" transform="translate(25,0)"/>
<path d="M0 0 C3.73814175 0.46726772 4.92989464 1.29461353 7.53125 4.09765625 C9.75318609 7.09117735 11.76813889 10.21449051 13.75244141 13.36914062 C15.5533248 16.21242876 17.44012479 18.99495576 19.32250977 21.78466797 C21.25540136 24.65617532 23.15929624 27.54625004 25.0625 30.4375 C25.05726318 29.56424072 25.05202637 28.69098145 25.04663086 27.79125977 C25.02962249 24.56160727 25.01706631 21.33197755 25.00756836 18.10229492 C25.0025292 16.70254772 24.99569784 15.3028058 24.98706055 13.90307617 C24.9749768 11.89504223 24.96980193 9.88697043 24.96484375 7.87890625 C24.95960693 6.66920166 24.95437012 5.45949707 24.94897461 4.21313477 C25.0625 1.4375 25.0625 1.4375 26.0625 0.4375 C29.3625 0.4375 32.6625 0.4375 36.0625 0.4375 C36.0625 16.9375 36.0625 33.4375 36.0625 50.4375 C27.0625 50.4375 27.0625 50.4375 25.109375 48.91796875 C24.68140625 48.16128906 24.2534375 47.40460938 23.8125 46.625 C23.26980469 45.73425781 22.72710937 44.84351563 22.16796875 43.92578125 C21.85520996 43.39549316 21.54245117 42.86520508 21.22021484 42.31884766 C19.29680039 39.19319776 17.18891213 36.19500116 15.1027832 33.17651367 C12.40771614 29.27380638 9.73773734 25.35382683 7.0625 21.4375 C6.7325 31.0075 6.4025 40.5775 6.0625 50.4375 C2.7625 50.4375 -0.5375 50.4375 -3.9375 50.4375 C-4.10468336 43.47759223 -4.26528619 36.51757635 -4.41967773 29.55737305 C-4.47318644 27.18753936 -4.52852231 24.81774621 -4.58569336 22.44799805 C-4.66735758 19.05005643 -4.74253992 15.65202518 -4.81640625 12.25390625 C-4.84344131 11.18725235 -4.87047638 10.12059845 -4.89833069 9.0216217 C-4.91842697 8.04068039 -4.93852325 7.05973907 -4.95922852 6.04907227 C-4.97921402 5.18081314 -4.99919952 4.31255402 -5.01979065 3.41798401 C-4.86839958 -0.22553553 -3.82196832 0.42466315 0 0 Z " fill="#DEE1E3" transform="translate(444.9375,22.5625)"/>
<path d="M0 0 C9 0 9 0 10.98046875 1.37011719 C11.37878906 2.00594727 11.77710938 2.64177734 12.1875 3.296875 C12.88794434 4.35660522 12.88794434 4.35660522 13.60253906 5.43774414 C14.29428223 6.58231079 14.29428223 6.58231079 15 7.75 C16.01396715 9.30707044 17.02960697 10.86305284 18.046875 12.41796875 C18.53994141 13.19188965 19.03300781 13.96581055 19.54101562 14.76318359 C21.63533919 17.97405919 23.91988699 21.02069891 26.25 24.0625 C27.4875 25.691875 28.725 27.32125 30 29 C30 19.43 30 9.86 30 0 C33.63 0 37.26 0 41 0 C41 16.17 41 32.34 41 49 C37.7 49 34.4 49 31 49 C28.65587378 46.43448408 27.48788559 44.75966379 26 41.75 C25.18757947 40.28206278 24.36711337 38.81855236 23.5390625 37.359375 C23.12817383 36.62654297 22.71728516 35.89371094 22.29394531 35.13867188 C19.15438151 29.94950604 14.9804862 25.54912709 11 21 C10.67 30.24 10.34 39.48 10 49 C6.7 49 3.4 49 0 49 C0 32.83 0 16.66 0 0 Z " fill="#DDDEE2" transform="translate(135,24)"/>
<path d="M0 0 C0.0252689 6.81761894 0.04283244 13.63522589 0.05493164 20.45288086 C0.05997333 22.77417451 0.06680651 25.09546497 0.07543945 27.41674805 C0.08751225 30.74528795 0.09322979 34.07378602 0.09765625 37.40234375 C0.10281754 38.44712387 0.10797882 39.49190399 0.11329651 40.56834412 C0.11337204 41.52926468 0.11344757 42.49018524 0.11352539 43.48022461 C0.115746 44.33071884 0.11796661 45.18121307 0.12025452 46.05747986 C0 48 0 48 -1 49 C-2.8125 49.1328125 -2.8125 49.1328125 -5 49.125 C-5.721875 49.12757812 -6.44375 49.13015625 -7.1875 49.1328125 C-9 49 -9 49 -10 48 C-10.15582303 46.65984779 -10.25044142 45.31241097 -10.31640625 43.96484375 C-10.37356812 42.87224243 -10.37356812 42.87224243 -10.43188477 41.75756836 C-10.47498779 40.8269458 -10.51809082 39.89632324 -10.5625 38.9375 C-10.706875 35.988125 -10.85125 33.03875 -11 30 C-16.94 30 -22.88 30 -29 30 C-29 36.27 -29 42.54 -29 49 C-32.3 49 -35.6 49 -39 49 C-39.33 32.83 -39.66 16.66 -40 0 C-36.37 0 -32.74 0 -29 0 C-29 6.6 -29 13.2 -29 20 C-22.73 20 -16.46 20 -10 20 C-10 13.4 -10 6.8 -10 0 C-2 -1 -2 -1 0 0 Z " fill="#DDDFE2" transform="translate(310,24)"/>
<path d="M0 0 C4.12235078 -0.54030811 7.89895019 -0.77715156 12 0 C14.16138149 2.01901505 15.2982387 3.91035623 16.62109375 6.54296875 C18.31427949 9.56000509 20.49044165 11.64126652 23 14 C23.51046875 12.989375 24.0209375 11.97875 24.546875 10.9375 C28.91910856 2.91612126 28.91910856 2.91612126 32 0 C36.23459069 -1.20410106 39.7244672 -0.91153491 44 0 C42.30852649 3.73761083 39.98915625 6.98134185 37.625 10.3125 C34.5030659 14.75877762 31.56376894 19.20686676 29 24 C33.0579212 31.06744331 37.22781416 38.01580609 41.71484375 44.8203125 C43 47 43 47 43 49 C39.04 49 35.08 49 31 49 C28.03 43.72 25.06 38.44 22 33 C18.99228545 36.00771455 17.24011216 38.97312418 15.3125 42.6875 C14.99216797 43.29400391 14.67183594 43.90050781 14.34179688 44.52539062 C13.55628516 46.01434566 12.77747058 47.50683047 12 49 C8.04 49 4.08 49 0 49 C1.67769232 44.80576919 3.28363389 41.90549289 5.8125 38.25 C9.17420822 33.30234929 12.21939984 28.29383491 15 23 C10.60524242 16.66880236 6.12274994 10.42014413 1.50390625 4.25 C0 2 0 2 0 0 Z " fill="#DCDEE1" transform="translate(221,24)"/>
<path d="M0 0 C0.09765625 6.15234375 0.09765625 6.15234375 0 8 C-1 9 -1 9 -2.85766602 9.11352539 C-3.64842529 9.10828857 -4.43918457 9.10305176 -5.25390625 9.09765625 C-6.10791016 9.09443359 -6.96191406 9.09121094 -7.84179688 9.08789062 C-8.73962891 9.07951172 -9.63746094 9.07113281 -10.5625 9.0625 C-11.46419922 9.05798828 -12.36589844 9.05347656 -13.29492188 9.04882812 C-15.52997589 9.03700244 -17.76499602 9.01906638 -20 9 C-19.67 12.3 -19.34 15.6 -19 19 C-17.85660156 18.98839844 -16.71320313 18.97679688 -15.53515625 18.96484375 C-14.04427246 18.95546712 -12.55338691 18.94636679 -11.0625 18.9375 C-10.30775391 18.92912109 -9.55300781 18.92074219 -8.77539062 18.91210938 C-6.85005687 18.90347559 -4.92464419 18.94775667 -3 19 C-2 20 -2 20 -1.8671875 21.8125 C-1.86976563 22.534375 -1.87234375 23.25625 -1.875 24 C-1.87113281 25.0828125 -1.87113281 25.0828125 -1.8671875 26.1875 C-2 28 -2 28 -3 29 C-5.86267567 29.07325168 -8.700719 29.09238205 -11.5625 29.0625 C-12.36880859 29.05798828 -13.17511719 29.05347656 -14.00585938 29.04882812 C-16.00393756 29.03700518 -18.00197783 29.01906914 -20 29 C-20 32.63 -20 36.26 -20 40 C-17.85177734 39.98259766 -17.85177734 39.98259766 -15.66015625 39.96484375 C-13.79427213 39.95546745 -11.92838661 39.94636708 -10.0625 39.9375 C-9.11697266 39.92912109 -8.17144531 39.92074219 -7.19726562 39.91210938 C-5.84858398 39.90727539 -5.84858398 39.90727539 -4.47265625 39.90234375 C-3.64000244 39.89710693 -2.80734863 39.89187012 -1.94946289 39.88647461 C0 40 0 40 1 41 C1.125 44.5 1.125 44.5 1 48 C0 49 0 49 -2.77563477 49.11352539 C-3.98533936 49.10828857 -5.19504395 49.10305176 -6.44140625 49.09765625 C-7.74658203 49.09443359 -9.05175781 49.09121094 -10.39648438 49.08789062 C-11.7851569 49.07953401 -13.17382877 49.07106905 -14.5625 49.0625 C-15.95507656 49.05748666 -17.34765481 49.05292347 -18.74023438 49.04882812 C-22.1601987 49.03699434 -25.58007844 49.0205088 -29 49 C-30.05413433 38.3766553 -30.11879674 27.8509522 -30.0625 17.1875 C-30.05747056 15.51237114 -30.05291023 13.83724081 -30.04882812 12.16210938 C-30.03794708 8.10803561 -30.02076371 4.05403469 -30 0 C-25.93791759 -0.19739706 -21.87532945 -0.38118364 -17.8125 -0.5625 C-16.66201172 -0.61857422 -15.51152344 -0.67464844 -14.32617188 -0.73242188 C-13.21435547 -0.78076172 -12.10253906 -0.82910156 -10.95703125 -0.87890625 C-9.42526245 -0.94960327 -9.42526245 -0.94960327 -7.86254883 -1.02172852 C-5.09707955 -1.00073689 -2.68354309 -0.64017052 0 0 Z " fill="#DDDFE2" transform="translate(433,24)"/>
<path d="M0 0 C9.9 0 19.8 0 30 0 C30 2.64 30 5.28 30 8 C28.45049732 9.54950268 26.90009406 9.21655193 24.74609375 9.31640625 C23.46508789 9.37924805 23.46508789 9.37924805 22.15820312 9.44335938 C21.26037109 9.48267578 20.36253906 9.52199219 19.4375 9.5625 C18.53580078 9.60568359 17.63410156 9.64886719 16.70507812 9.69335938 C14.47024844 9.79977984 12.23514514 9.90042481 10 10 C10 13.3 10 16.6 10 20 C15.94 20 21.88 20 28 20 C28 22.97 28 25.94 28 29 C22.06 29 16.12 29 10 29 C10.33 32.63 10.66 36.26 11 40 C17.6 40 24.2 40 31 40 C31.33 42.64 31.66 45.28 32 48 C31 49 31 49 28.13256836 49.11352539 C26.88096924 49.10828857 25.62937012 49.10305176 24.33984375 49.09765625 C23.34314415 49.09553383 23.34314415 49.09553383 22.3263092 49.09336853 C20.19666101 49.08775518 18.06711661 49.07520054 15.9375 49.0625 C14.49674631 49.05748671 13.05599097 49.05292351 11.61523438 49.04882812 C8.07678898 49.03778145 4.53840461 49.02050792 1 49 C0.85457423 44.4326251 0.71233003 39.86516483 0.57275391 35.29760742 C0.52507837 33.75103223 0.47660495 32.20448137 0.42724609 30.65795898 C0.35552778 28.40615029 0.28689956 26.15426298 0.21875 23.90234375 C0.18593933 22.90290993 0.18593933 22.90290993 0.15246582 21.88328552 C-0.06264129 14.58181645 0 7.31677642 0 0 Z " fill="#DCDDE0" transform="translate(184,24)"/>
<path d="M0 0 C9.57 0 19.14 0 29 0 C29 2.97 29 5.94 29 9 C22.73 9 16.46 9 10 9 C10 12.63 10 16.26 10 20 C15.94 20 21.88 20 28 20 C28 22.64 28 25.28 28 28 C27 29 27 29 23.18359375 29.09765625 C21.60153318 29.09098089 20.01948841 29.07901875 18.4375 29.0625 C17.63119141 29.05798828 16.82488281 29.05347656 15.99414062 29.04882812 C13.99606244 29.03700518 11.99802217 29.01906914 10 29 C10.16371094 29.58265625 10.32742188 30.1653125 10.49609375 30.765625 C11.1933574 33.85736768 11.06071416 36.84286393 11 40 C11.85549438 39.99214478 11.85549438 39.99214478 12.72827148 39.98413086 C15.29800323 39.96341779 17.86771747 39.9503581 20.4375 39.9375 C21.33533203 39.92912109 22.23316406 39.92074219 23.15820312 39.91210938 C24.01220703 39.90888672 24.86621094 39.90566406 25.74609375 39.90234375 C26.53685303 39.89710693 27.3276123 39.89187012 28.14233398 39.88647461 C30 40 30 40 31 41 C31 43.64 31 46.28 31 49 C21.1 49 11.2 49 1 49 C0.67 32.83 0.34 16.66 0 0 Z " fill="#DEDFE2" transform="translate(318,24)"/>
<path d="M0 0 C2.97 0.33 5.94 0.66 9 1 C9.90759714 3.26899286 10.81449469 5.53826701 11.71875 7.80859375 C12.64593662 10.11807993 13.58329698 12.42174789 14.53125 14.72265625 C17.12905468 21.0641684 19.62442664 27.25969054 21 34 C21.66 34 22.32 34 23 34 C23.11786865 33.14390137 23.2357373 32.28780273 23.35717773 31.40576172 C24.01740504 27.90778568 25.03262181 24.83733443 26.28515625 21.5078125 C26.73310547 20.30898438 27.18105469 19.11015625 27.64257812 17.875 C28.11576723 16.62495526 28.589076 15.3749558 29.0625 14.125 C29.54021196 12.85174939 30.01743034 11.57831348 30.49414062 10.3046875 C31.65792244 7.20126933 32.82668968 4.09982553 34 1 C37.3 0.67 40.6 0.34 44 0 C45.22993811 3.68981434 44.64593661 4.46277637 43.12109375 7.9453125 C42.69707275 8.93225098 42.27305176 9.91918945 41.83618164 10.93603516 C41.14383423 12.51457275 41.14383423 12.51457275 40.4375 14.125 C36.96619791 22.21560341 33.67032051 30.29005381 30.89038086 38.64501953 C29.55552265 42.61733638 27.95572334 46.29381875 26 50 C22.7 50 19.4 50 16 50 C14.04042306 44.73120372 12.09709882 39.4566833 10.16503906 34.17773438 C9.33641804 31.91760629 8.50471137 29.65860845 7.67089844 27.40039062 C6.50212859 24.23456377 5.34363223 21.06511644 4.19085693 17.89343262 C3.50471961 16.01293504 2.80927389 14.1358424 2.11376953 12.25878906 C1.69466309 11.10088867 1.27555664 9.94298828 0.84375 8.75 C0.46412109 7.71359375 0.08449219 6.6771875 -0.30664062 5.609375 C-1 3 -1 3 0 0 Z " fill="#DDDFE1" transform="translate(354,23)"/>
<path d="M0 0 C1.65 0 3.3 0 5 0 C5.02505615 0.89082275 5.0501123 1.78164551 5.07592773 2.69946289 C5.17245652 6.08234817 5.27157684 9.46513877 5.37231445 12.84790039 C5.41498015 14.2974156 5.4566846 15.7469595 5.49731445 17.1965332 C5.77721892 27.1521477 6.26411431 37.06689752 7 47 C0.84765625 47.09765625 0.84765625 47.09765625 -1 47 C-2.51421001 45.48578999 -2.21309856 44.07527232 -2.31640625 41.96484375 C-2.37356812 40.87224243 -2.37356812 40.87224243 -2.43188477 39.75756836 C-2.47498779 38.8269458 -2.51809082 37.89632324 -2.5625 36.9375 C-2.706875 33.988125 -2.85125 31.03875 -3 28 C-8.94 28 -14.88 28 -21 28 C-21.33 28.66 -21.66 29.32 -22 30 C-22.33 28.02 -22.66 26.04 -23 24 C-21.68 23.34 -20.36 22.68 -19 22 C-19 21.34 -19 20.68 -19 20 C-12.73 19.67 -6.46 19.34 0 19 C0 12.73 0 6.46 0 0 Z " fill="#DCDDE1" transform="translate(302,26)"/>
<path d="M0 0 C9.57 0 19.14 0 29 0 C29 2.64 29 5.28 29 8 C27.45049732 9.54950268 25.90009406 9.21655193 23.74609375 9.31640625 C22.46508789 9.37924805 22.46508789 9.37924805 21.15820312 9.44335938 C20.26037109 9.48267578 19.36253906 9.52199219 18.4375 9.5625 C17.53580078 9.60568359 16.63410156 9.64886719 15.70507812 9.69335938 C13.47024844 9.79977984 11.23514514 9.90042481 9 10 C9 13.3 9 16.6 9 20 C14.94 20 20.88 20 27 20 C27 22.97 27 25.94 27 29 C21.06 29 15.12 29 9 29 C9.33 32.63 9.66 36.26 10 40 C16.6 40 23.2 40 30 40 C30.33 42.64 30.66 45.28 31 48 C30 49 30 49 27.13256836 49.11352539 C25.88096924 49.10828857 24.62937012 49.10305176 23.33984375 49.09765625 C22.12417725 49.09515869 20.90851074 49.09266113 19.65600586 49.09008789 C18.09889893 49.08098389 16.54179199 49.07187988 14.9375 49.0625 C10.008125 49.041875 5.07875 49.02125 0 49 C-0.33 37.12 -0.66 25.24 -1 13 C-0.01 12.67 0.98 12.34 2 12 C2 23.55 2 35.1 2 47 C10.58 47 19.16 47 28 47 C28 45.68 28 44.36 28 43 C21.73 43 15.46 43 9 43 C9 42.34 9 41.68 9 41 C8.34 40.67 7.68 40.34 7 40 C6.97303635 38.20841511 6.95362083 36.41671527 6.9375 34.625 C6.92589844 33.62726562 6.91429687 32.62953125 6.90234375 31.6015625 C7 29 7 29 8 27 C13.61 27 19.22 27 25 27 C25 25.35 25 23.7 25 22 C23.95199219 22.01160156 22.90398437 22.02320312 21.82421875 22.03515625 C20.44531428 22.04453655 19.06640789 22.0536365 17.6875 22.0625 C16.99720703 22.07087891 16.30691406 22.07925781 15.59570312 22.08789062 C12.4516975 22.10307906 10.00579981 22.00193327 7 21 C7 17.04 7 13.08 7 9 C7.66 9 8.32 9 9 9 C9 8.34 9 7.68 9 7 C16.92 6.505 16.92 6.505 25 6 C25.33 4.68 25.66 3.36 26 2 C17.42 2 8.84 2 0 2 C0 1.34 0 0.68 0 0 Z " fill="#EBECEF" transform="translate(185,24)"/>
<path d="M0 0 C5.625 -0.25 5.625 -0.25 9 2 C12 7.33333333 12 7.33333333 12 10 C12.66 10 13.32 10 14 10 C15.62109375 12.23046875 15.62109375 12.23046875 17.4375 15.1875 C18.33275391 16.63189453 18.33275391 16.63189453 19.24609375 18.10546875 C20.83802234 20.73268275 22.42378339 23.36333184 24 26 C22.35 26.66 20.7 27.32 19 28 C17.4941255 26.21326795 15.9954515 24.42046492 14.5 22.625 C13.6646875 21.62726562 12.829375 20.62953125 11.96875 19.6015625 C10 17 10 17 10 15 C9.01 15.33 8.02 15.66 7 16 C6.67 25.57 6.34 35.14 6 45 C4.35 45 2.7 45 1 45 C0 44 0 44 -0.12025452 42.20933533 C-0.11803391 41.42990067 -0.11581329 40.650466 -0.11352539 39.84741211 C-0.11341209 38.52615578 -0.11341209 38.52615578 -0.11329651 37.1782074 C-0.10555458 35.74227989 -0.10555458 35.74227989 -0.09765625 34.27734375 C-0.0962413 33.30213272 -0.09482635 32.32692169 -0.09336853 31.32215881 C-0.08775133 28.19390857 -0.07519593 25.06572877 -0.0625 21.9375 C-0.05748722 19.82226666 -0.05292393 17.70703219 -0.04882812 15.59179688 C-0.03777631 10.39450704 -0.02102146 5.19725855 0 0 Z " fill="#DCDEE1" transform="translate(137,26)"/>
<path d="M0 0 C4.12235078 -0.54030811 7.89895019 -0.77715156 12 0 C14.16138149 2.01901505 15.2982387 3.91035623 16.62109375 6.54296875 C18.31427949 9.56000509 20.49044165 11.64126652 23 14 C23.51046875 12.989375 24.0209375 11.97875 24.546875 10.9375 C28.91910856 2.91612126 28.91910856 2.91612126 32 0 C36.23459069 -1.20410106 39.7244672 -0.91153491 44 0 C42.30852649 3.73761083 39.98915625 6.98134185 37.625 10.3125 C34.5030659 14.75877762 31.56376894 19.20686676 29 24 C29.49371094 24.83144531 29.98742187 25.66289063 30.49609375 26.51953125 C31.13675781 27.60621094 31.77742188 28.69289063 32.4375 29.8125 C33.07558594 30.89144531 33.71367187 31.97039063 34.37109375 33.08203125 C36 36 36 36 37 39 C32.79472231 37.4927987 31.41673411 34.91215491 29.25 31.125 C28.63640625 30.07570313 28.0228125 29.02640625 27.390625 27.9453125 C26 25 26 25 26 21 C27.5 19.25 27.5 19.25 29 18 C28.34 16.68 27.68 15.36 27 14 C26.608125 14.515625 26.21625 15.03125 25.8125 15.5625 C24 17 24 17 21.59375 16.8671875 C18.29425015 15.76404147 17.49866344 14.48750556 15.6875 11.5625 C15.17574219 10.75941406 14.66398438 9.95632812 14.13671875 9.12890625 C13 7 13 7 13 5 C12.34 4.67 11.68 4.34 11 4 C11 3.67 11 3.34 11 3 C8.69 2.67 6.38 2.34 4 2 C4.433125 2.54269531 4.86625 3.08539062 5.3125 3.64453125 C5.869375 4.35996094 6.42625 5.07539063 7 5.8125 C7.8353125 6.87404297 7.8353125 6.87404297 8.6875 7.95703125 C10 10 10 10 10 13 C9.34 13 8.68 13 8 13 C6.55473264 11.26451831 5.1912778 9.46024037 3.875 7.625 C3.15054688 6.62726562 2.42609375 5.62953125 1.6796875 4.6015625 C0 2 0 2 0 0 Z " fill="#DEDFE2" transform="translate(221,24)"/>
<path d="M0 0 C9.57 0 19.14 0 29 0 C29 2.97 29 5.94 29 9 C22.73 9 16.46 9 10 9 C10 12.63 10 16.26 10 20 C9.34 20.33 8.68 20.66 8 21 C7.77857745 19.04310341 7.5732432 17.08438048 7.375 15.125 C7.25898438 14.03445312 7.14296875 12.94390625 7.0234375 11.8203125 C7.01570313 10.88960937 7.00796875 9.95890625 7 9 C9 7 9 7 10.87939453 6.77294922 C11.62302246 6.78342285 12.36665039 6.79389648 13.1328125 6.8046875 C13.93847656 6.81113281 14.74414062 6.81757813 15.57421875 6.82421875 C16.83685547 6.84935547 16.83685547 6.84935547 18.125 6.875 C19.39923828 6.88853516 19.39923828 6.88853516 20.69921875 6.90234375 C22.79959884 6.92594353 24.89983444 6.96181517 27 7 C27 5.35 27 3.7 27 2 C19.08 2 11.16 2 3 2 C3.33 5.63 3.66 9.26 4 13 C4.01420428 15.85665719 3.99102243 18.66295697 3.87890625 21.51171875 C3.85529526 22.25081985 3.83168427 22.98992096 3.80735779 23.75141907 C3.73206446 26.06371078 3.64748227 28.37554633 3.5625 30.6875 C3.50914394 32.27536986 3.45640506 33.86326058 3.40429688 35.45117188 C3.27777186 39.3011472 3.13862946 43.15036642 3 47 C11.58 47 20.16 47 29 47 C29 46.34 29 45.68 29 45 C29.66 45 30.32 45 31 45 C31 46.32 31 47.64 31 49 C21.1 49 11.2 49 1 49 C0.67 32.83 0.34 16.66 0 0 Z " fill="#F4F5F7" transform="translate(318,24)"/>
<path d="M0 0 C3.63 0 7.26 0 11 0 C11 16.17 11 32.34 11 49 C7.7 49 4.4 49 1 49 C-0.32 46.69 -1.64 44.38 -3 42 C-2.01 42 -1.02 42 0 42 C0.66 43.65 1.32 45.3 2 47 C5.465 46.505 5.465 46.505 9 46 C8.9278125 45.08605469 8.855625 44.17210937 8.78125 43.23046875 C7.79434554 29.49296975 7.90109547 15.76598872 8 2 C6.35 2 4.7 2 3 2 C3 12.23 3 22.46 3 33 C-2.63011707 30.74795317 -2.63011707 30.74795317 -4.859375 27.6640625 C-5.33503906 27.01179688 -5.81070313 26.35953125 -6.30078125 25.6875 C-7.01814453 24.6665625 -7.01814453 24.6665625 -7.75 23.625 C-8.24371094 22.95210937 -8.73742187 22.27921875 -9.24609375 21.5859375 C-11.5424686 18.38988703 -13.21948494 15.90795074 -14 12 C-14.66 12 -15.32 12 -16 12 C-17.6875 9.6875 -17.6875 9.6875 -19 7 C-18.67 6.01 -18.34 5.02 -18 4 C-17.45472656 4.79921875 -16.90945312 5.5984375 -16.34765625 6.421875 C-11.08420711 14.09994466 -5.62842273 21.58477641 0 29 C0 19.43 0 9.86 0 0 Z " fill="#ECEDF0" transform="translate(165,24)"/>
<path d="M0 0 C2.97 0 5.94 0 9 0 C9.66 1.32 10.32 2.64 11 4 C10.01 4.495 10.01 4.495 9 5 C8.67 4.34 8.34 3.68 8 3 C5.03 2.505 5.03 2.505 2 2 C2.33 16.52 2.66 31.04 3 46 C4.65 46.33 6.3 46.66 8 47 C8 37.43 8 27.86 8 18 C9.32 17.67 10.64 17.34 12 17 C15.96 22.28 19.92 27.56 24 33 C23.34 33.66 22.68 34.32 22 35 C20.93458984 33.60974609 20.93458984 33.60974609 19.84765625 32.19140625 C18.91930895 30.98174158 17.99092145 29.77210776 17.0625 28.5625 C16.35963867 27.64500977 16.35963867 27.64500977 15.64257812 26.70898438 C13.44328176 23.75031115 13.44328176 23.75031115 11 21 C10.67 30.24 10.34 39.48 10 49 C6.7 49 3.4 49 0 49 C0 32.83 0 16.66 0 0 Z " fill="#EDEEF1" transform="translate(135,24)"/>
<path d="M0 0 C-1.79724267 5.81460863 -3.95900601 11.39443999 -6.3125 17 C-9.11718561 23.68356954 -11.64534019 30.42164376 -13.95825195 37.29101562 C-15.3509715 41.37699069 -16.98217882 45.18394407 -19 49 C-22.3 49 -25.6 49 -29 49 C-30.17059578 45.87642044 -31.33663211 42.75127047 -32.5 39.625 C-32.83386719 38.73554687 -33.16773438 37.84609375 -33.51171875 36.9296875 C-33.82753906 36.07890625 -34.14335937 35.228125 -34.46875 34.3515625 C-34.90864258 33.17327881 -34.90864258 33.17327881 -35.35742188 31.97119141 C-36 30 -36 30 -36 28 C-35.34 28 -34.68 28 -34 28 C-33.66226562 28.88042969 -33.32453125 29.76085937 -32.9765625 30.66796875 C-32.53054688 31.82941406 -32.08453125 32.99085937 -31.625 34.1875 C-31.18414062 35.33605469 -30.74328125 36.48460937 -30.2890625 37.66796875 C-29.21147857 40.45335994 -28.1163557 43.22997721 -27 46 C-24.69 46 -22.38 46 -20 46 C-19.764021 45.33693848 -19.52804199 44.67387695 -19.28491211 43.99072266 C-14.38584451 30.24674284 -9.38630004 16.56100621 -4 3 C-6.97 2.505 -6.97 2.505 -10 2 C-10.0825 2.78375 -10.165 3.5675 -10.25 4.375 C-11.06346821 8.30676302 -12.40896413 11.69163271 -13.9453125 15.38671875 C-15.48333849 19.19760537 -16.75211862 23.0861902 -18 27 C-18.99 27 -19.98 27 -21 27 C-17.7 18.09 -14.4 9.18 -11 0 C-2 -1 -2 -1 0 0 Z " fill="#EFF1F3" transform="translate(399,24)"/>
<path d="M0 0 C2.31118163 3.46677244 2.24417896 4.76331881 2.22705078 8.84838867 C2.22689972 10.0494072 2.22674866 11.25042572 2.22659302 12.48783875 C2.21627045 13.78478165 2.20594788 15.08172455 2.1953125 16.41796875 C2.19158155 17.75889373 2.18873497 19.09982144 2.18673706 20.44075012 C2.17910699 23.96714833 2.15946403 27.49338134 2.1373291 31.01971436 C2.1168571 34.61923996 2.10773245 38.21879231 2.09765625 41.81835938 C2.07621745 48.87897376 2.04208913 55.93947609 2 63 C2.66 63.33 3.32 63.66 4 64 C4 65.32 4 66.64 4 68 C5.83700789 68.77242269 5.83700789 68.77242269 8 69 C9.77190909 67.64555699 9.77190909 67.64555699 11 66 C11.33 66.99 11.66 67.98 12 69 C10.38113585 70.67262717 8.7547271 72.33795537 7.125 74 C6.22007812 74.928125 5.31515625 75.85625 4.3828125 76.8125 C2 79 2 79 0 79 C0 52.93 0 26.86 0 0 Z " fill="#5D3DBB" transform="translate(1,25)"/>
<path d="M0 0 C2.75360941 0.01889269 4.63585614 0.24611896 7.21484375 1.265625 C10.38620861 4.6299841 12.82715384 8.31650299 15.21484375 12.265625 C14.55484375 12.925625 13.89484375 13.585625 13.21484375 14.265625 C12.59609375 13.316875 11.97734375 12.368125 11.33984375 11.390625 C9.39513406 8.32117391 9.39513406 8.32117391 7.21484375 6.265625 C6.88484375 5.605625 6.55484375 4.945625 6.21484375 4.265625 C3.24484375 3.770625 3.24484375 3.770625 0.21484375 3.265625 C0.21484375 18.115625 0.21484375 32.965625 0.21484375 48.265625 C2.19484375 48.265625 4.17484375 48.265625 6.21484375 48.265625 C6.21484375 38.365625 6.21484375 28.465625 6.21484375 18.265625 C6.54484375 18.265625 6.87484375 18.265625 7.21484375 18.265625 C8.00064168 22.41485558 8.33339358 26.31855931 8.3125 30.5390625 C8.30927734 31.69277344 8.30605469 32.84648438 8.30273438 34.03515625 C8.29435547 35.22496094 8.28597656 36.41476563 8.27734375 37.640625 C8.27283203 38.85363281 8.26832031 40.06664062 8.26367188 41.31640625 C8.25192729 44.29953007 8.23550215 47.28255179 8.21484375 50.265625 C4.91484375 50.265625 1.61484375 50.265625 -1.78515625 50.265625 C-1.95233961 43.30571723 -2.11294244 36.34570135 -2.26733398 29.38549805 C-2.32084269 27.01566436 -2.37617856 24.64587121 -2.43334961 22.27612305 C-2.51501383 18.87818143 -2.59019617 15.48015018 -2.6640625 12.08203125 C-2.69109756 11.01537735 -2.71813263 9.94872345 -2.74598694 8.8497467 C-2.76608322 7.86880539 -2.7861795 6.88786407 -2.80688477 5.87719727 C-2.82687027 5.00893814 -2.84685577 4.14067902 -2.8674469 3.24610901 C-2.76058136 0.67418255 -2.53173364 0.3767131 0 0 Z " fill="#F5F6F9" transform="translate(442.78515625,22.734375)"/>
<path d="M0 0 C0 15.84 0 31.68 0 48 C-0.66 48 -1.32 48 -2 48 C-2.90530454 37.67728287 -3.1248923 27.47741297 -3.0625 17.125 C-3.05746663 15.64713696 -3.05290702 14.16927223 -3.04882812 12.69140625 C-3.03798718 9.12756805 -3.02082779 5.56379553 -3 2 C-4.65 2 -6.3 2 -8 2 C-8 8.27 -8 14.54 -8 21 C-10.34852528 22.17426264 -11.73774065 22.11508173 -14.3515625 22.09765625 C-15.20234375 22.09443359 -16.053125 22.09121094 -16.9296875 22.08789062 C-17.81914062 22.07951172 -18.70859375 22.07113281 -19.625 22.0625 C-20.5221875 22.05798828 -21.419375 22.05347656 -22.34375 22.04882812 C-24.56256648 22.03702591 -26.78125018 22.02056155 -29 22 C-29 21.34 -29 20.68 -29 20 C-22.73 20 -16.46 20 -10 20 C-10 13.4 -10 6.8 -10 0 C-2 -1 -2 -1 0 0 Z " fill="#EFF1F3" transform="translate(310,24)"/>
<path d="M0 0 C5.15924464 4.40053219 8.13973101 9.89612699 11 16 C11 16.66 11 17.32 11 18 C13.31 17.67 15.62 17.34 18 17 C17.01 15.02 16.02 13.04 15 11 C15.66 10.67 16.32 10.34 17 10 C17.83878455 11.28813342 18.67086783 12.58063256 19.5 13.875 C19.9640625 14.59429687 20.428125 15.31359375 20.90625 16.0546875 C22 18 22 18 22 20 C18.04 20 14.08 20 10 20 C7.03 14.72 4.06 9.44 1 4 C-2.00771455 7.00771455 -3.75988784 9.97312418 -5.6875 13.6875 C-6.00783203 14.29400391 -6.32816406 14.90050781 -6.65820312 15.52539062 C-7.44371484 17.01434566 -8.22252942 18.50683047 -9 20 C-12.96 20 -16.92 20 -21 20 C-19.36768634 15.91921584 -17.7416683 12.82515683 -15.375 9.1875 C-14.74335938 8.21167969 -14.11171875 7.23585938 -13.4609375 6.23046875 C-12.73777344 5.12638672 -12.73777344 5.12638672 -12 4 C-11.34 4.66 -10.68 5.32 -10 6 C-12.31 9.63 -14.62 13.26 -17 17 C-14.69 17.33 -12.38 17.66 -10 18 C-9.90589844 17.46632813 -9.81179687 16.93265625 -9.71484375 16.3828125 C-8.77218246 13.24060819 -7.23002918 10.69697245 -5.5625 7.875 C-4.94503906 6.82054687 -4.32757813 5.76609375 -3.69140625 4.6796875 C-2 2 -2 2 0 0 Z " fill="#EEF0F2" transform="translate(242,53)"/>
<path d="M0 0 C2.97 0.33 5.94 0.66 9 1 C9.90759714 3.26899286 10.81449469 5.53826701 11.71875 7.80859375 C12.64593662 10.11807993 13.58329698 12.42174789 14.53125 14.72265625 C17.12905468 21.0641684 19.62442664 27.25969054 21 34 C21.66 34 22.32 34 23 34 C23.33 32.68 23.66 31.36 24 30 C24.66 30 25.32 30 26 30 C25.34 32.31 24.68 34.62 24 37 C22.02 37.495 22.02 37.495 20 38 C18.85017194 35.08489248 17.70584512 32.16765566 16.5625 29.25 C16.07426758 28.0125 16.07426758 28.0125 15.57617188 26.75 C15.26357422 25.95078125 14.95097656 25.1515625 14.62890625 24.328125 C14.34088135 23.5949707 14.05285645 22.86181641 13.75610352 22.10644531 C13.03062868 20.0853291 12.50380383 18.0854263 12 16 C10.97990176 13.14044751 9.91003267 10.3020796 8.83984375 7.4609375 C8 5 8 5 8 3 C6.02 3 4.04 3 2 3 C2.24234375 3.66644531 2.4846875 4.33289063 2.734375 5.01953125 C3.43875471 6.95657545 4.14178635 8.89411018 4.84375 10.83203125 C5.60452729 12.91645822 6.37511017 14.99733684 7.15625 17.07421875 C7.5171875 18.03972656 7.878125 19.00523438 8.25 20 C8.58515625 20.886875 8.9203125 21.77375 9.265625 22.6875 C10 25 10 25 10 28 C9.34 28 8.68 28 8 28 C6.46425219 23.90125875 4.94898776 19.79524311 3.4375 15.6875 C2.99986328 14.52025391 2.56222656 13.35300781 2.11132812 12.15039062 C1.70205078 11.03212891 1.29277344 9.91386719 0.87109375 8.76171875 C0.48880615 7.73006592 0.10651855 6.69841309 -0.28735352 5.63549805 C-1 3 -1 3 0 0 Z " fill="#EFF0F2" transform="translate(354,23)"/>
<path d="M0 0 C-0.33 0.99 -0.66 1.98 -1 3 C-1.99 2.67 -2.98 2.34 -4 2 C-5.84610532 1.91760831 -7.69505164 1.89256641 -9.54296875 1.90234375 C-11.15268555 1.90717773 -11.15268555 1.90717773 -12.79492188 1.91210938 C-13.91447266 1.92048828 -15.03402344 1.92886719 -16.1875 1.9375 C-17.88422852 1.94426758 -17.88422852 1.94426758 -19.61523438 1.95117188 C-22.41020927 1.96296502 -25.2050782 1.9794235 -28 2 C-27.96970703 2.85529297 -27.93941406 3.71058594 -27.90820312 4.59179688 C-26.80991939 35.9689183 -26.80991939 35.9689183 -27 49 C-27.66 49 -28.32 49 -29 49 C-30.05413433 38.3766553 -30.11879674 27.8509522 -30.0625 17.1875 C-30.05747056 15.51237114 -30.05291023 13.83724081 -30.04882812 12.16210938 C-30.03794708 8.10803561 -30.02076371 4.05403469 -30 0 C-25.93791759 -0.19739706 -21.87532945 -0.38118364 -17.8125 -0.5625 C-16.66201172 -0.61857422 -15.51152344 -0.67464844 -14.32617188 -0.73242188 C-13.21435547 -0.78076172 -12.10253906 -0.82910156 -10.95703125 -0.87890625 C-9.42526245 -0.94960327 -9.42526245 -0.94960327 -7.86254883 -1.02172852 C-5.09707955 -1.00073689 -2.68354309 -0.64017052 0 0 Z " fill="#F1F2F5" transform="translate(433,24)"/>
<path d="M0 0 C0 7.26 0 14.52 0 22 C-0.99 22 -1.98 22 -3 22 C-3.495 17.05 -3.495 17.05 -4 12 C-6.69033564 10.88187991 -6.69033564 10.88187991 -10 11 C-12.38782014 13.0543858 -14.19296794 15.43042604 -16 18 C-16.99 17.67 -17.98 17.34 -19 17 C-19 17.66 -19 18.32 -19 19 C-19.66 18.67 -20.32 18.34 -21 18 C-17.08621983 13.36048576 -13.0196168 8.87540147 -8.8125 4.5 C-7.99394531 3.6440625 -7.17539063 2.788125 -6.33203125 1.90625 C-4 0 -4 0 0 0 Z " fill="#7250DB" transform="translate(98,0)"/>
<path d="M0 0 C4.12235078 -0.54030811 7.89895019 -0.77715156 12 0 C14.19203689 2.04765123 15.35040431 4.02364639 16.75390625 6.6640625 C18.39791371 9.74593229 20.43796154 11.66402376 23 14 C24.32 12.02 25.64 10.04 27 8 C27.66 8.66 28.32 9.32 29 10 C27.35 12.31 25.7 14.62 24 17 C20.80732289 16.68997854 19.38660367 16.42853465 17.19921875 14.00390625 C16.70035156 13.19824219 16.20148438 12.39257812 15.6875 11.5625 C15.17574219 10.75941406 14.66398438 9.95632812 14.13671875 9.12890625 C13 7 13 7 13 5 C12.34 4.67 11.68 4.34 11 4 C11 3.67 11 3.34 11 3 C8.69 2.67 6.38 2.34 4 2 C4.433125 2.54269531 4.86625 3.08539062 5.3125 3.64453125 C5.869375 4.35996094 6.42625 5.07539063 7 5.8125 C7.8353125 6.87404297 7.8353125 6.87404297 8.6875 7.95703125 C10 10 10 10 10 13 C9.34 13 8.68 13 8 13 C6.55473264 11.26451831 5.1912778 9.46024037 3.875 7.625 C3.15054688 6.62726562 2.42609375 5.62953125 1.6796875 4.6015625 C0 2 0 2 0 0 Z " fill="#EDEFF2" transform="translate(221,24)"/>
<path d="M0 0 C0.8650415 0.35408936 0.8650415 0.35408936 1.74755859 0.71533203 C1.74755859 1.37533203 1.74755859 2.03533203 1.74755859 2.71533203 C1.08755859 2.71533203 0.42755859 2.71533203 -0.25244141 2.71533203 C0.07755859 3.70533203 0.40755859 4.69533203 0.74755859 5.71533203 C0.14943359 6.10720703 -0.44869141 6.49908203 -1.06494141 6.90283203 C-3.40554073 8.6257351 -3.40554073 8.6257351 -4.75244141 11.34033203 C-6.25244141 13.71533203 -6.25244141 13.71533203 -8.31494141 14.65283203 C-9.27400391 14.68376953 -9.27400391 14.68376953 -10.25244141 14.71533203 C-10.91244141 14.05533203 -11.57244141 13.39533203 -12.25244141 12.71533203 C-14.34750393 16.16242062 -14.34750393 16.16242062 -16.25244141 19.71533203 C-17.89607274 20.43692628 -19.56294527 21.10884624 -21.25244141 21.71533203 C-19.2072878 15.73407449 -15.27613133 12.22440837 -10.87744141 7.84033203 C-10.10916016 7.04369141 -9.34087891 6.24705078 -8.54931641 5.42626953 C-7.80423828 4.67861328 -7.05916016 3.93095703 -6.29150391 3.16064453 C-5.61297363 2.47502441 -4.93444336 1.7894043 -4.23535156 1.08300781 C-2.25244141 -0.28466797 -2.25244141 -0.28466797 0 0 Z " fill="#6B46CF" transform="translate(23.25244140625,4.28466796875)"/>
<path d="M0 0 C2.0625 0.4375 2.0625 0.4375 4 1 C3.67 1.33 3.34 1.66 3 2 C2.84111908 4.28988781 2.74861927 6.58443441 2.68359375 8.87890625 C2.66281265 9.5655687 2.64203156 10.25223114 2.62062073 10.95970154 C2.55505857 13.16052935 2.49620985 15.36147975 2.4375 17.5625 C2.39432108 19.05144514 2.350707 20.54037773 2.30664062 22.02929688 C2.1993707 25.68606553 2.09812228 29.34297318 2 33 C-1.95797026 32.46833235 -2.71377944 32.36357747 -5.3125 29.0625 C-7 26 -7 26 -7 24 C-7.66 24 -8.32 24 -9 24 C-9.99 21.69 -10.98 19.38 -12 17 C-7.89911064 18.50607883 -6.46490446 20.96188878 -4.25 24.625 C-3.63640625 25.62789062 -3.0228125 26.63078125 -2.390625 27.6640625 C-1.70226562 28.82035156 -1.70226562 28.82035156 -1 30 C-1.00785522 28.69011108 -1.00785522 28.69011108 -1.01586914 27.35375977 C-1.03287751 24.12410727 -1.04543369 20.89447755 -1.05493164 17.66479492 C-1.0599708 16.26504772 -1.06680216 14.8653058 -1.07543945 13.46557617 C-1.0875232 11.45754223 -1.09269807 9.44947043 -1.09765625 7.44140625 C-1.10551147 5.62684937 -1.10551147 5.62684937 -1.11352539 3.77563477 C-1 1 -1 1 0 0 Z " fill="#EDF0F2" transform="translate(471,23)"/>
<path d="M0 0 C9.57 0 19.14 0 29 0 C29 2.64 29 5.28 29 8 C28 9 28 9 24.40234375 9.09765625 C22.91403133 9.0909822 21.42573568 9.07902183 19.9375 9.0625 C18.79958008 9.05573242 18.79958008 9.05573242 17.63867188 9.04882812 C15.75908129 9.0370068 13.87953101 9.01907078 12 9 C11.67 8.34 11.34 7.68 11 7 C15.62 6.67 20.24 6.34 25 6 C25.33 4.68 25.66 3.36 26 2 C17.42 2 8.84 2 0 2 C0 1.34 0 0.68 0 0 Z " fill="#F4F5F7" transform="translate(185,24)"/>
<path d="M0 0 C0.33 0 0.66 0 1 0 C1.02510681 5.52774745 1.04304801 11.05546023 1.05493164 16.58325195 C1.05989652 18.45565368 1.06667065 20.32805167 1.07543945 22.20043945 C1.11881612 31.71523822 1.1006803 41.21775637 0.62109375 50.72265625 C0.57517845 51.78896523 0.57517845 51.78896523 0.52833557 52.8768158 C0.23916863 57.76083137 0.23916863 57.76083137 -2 60 C-2.02465392 55.46102295 -2.04283789 50.92208457 -2.05493164 46.38305664 C-2.0599714 44.83780234 -2.0668032 43.29255284 -2.07543945 41.74731445 C-2.08752076 39.53074971 -2.09323173 37.31424782 -2.09765625 35.09765625 C-2.10281754 34.4028566 -2.10797882 33.70805695 -2.11329651 32.99220276 C-2.11349277 31.3277067 -2.06189129 29.66334501 -2 28 C-1.67 27.67 -1.34 27.34 -1 27 C-0.84174742 25.00217874 -0.74880829 22.99911166 -0.68359375 20.99609375 C-0.64169922 19.78115234 -0.59980469 18.56621094 -0.55664062 17.31445312 C-0.51732422 16.03505859 -0.47800781 14.75566406 -0.4375 13.4375 C-0.39431641 12.15423828 -0.35113281 10.87097656 -0.30664062 9.54882812 C-0.200152 6.36600147 -0.09814038 3.18309326 0 0 Z " fill="#6F56CB" transform="translate(96,24)"/>
<path d="M0 0 C2 2 2 2 2.22705078 5.80712891 C2.22673346 7.4469742 2.21539681 9.08684017 2.1953125 10.7265625 C2.1924826 11.58937836 2.18965271 12.45219421 2.18673706 13.34115601 C2.17552333 16.1025772 2.15041684 18.8636765 2.125 21.625 C2.11497173 23.49478699 2.10584562 25.36457905 2.09765625 27.234375 C2.07558012 31.82304109 2.04104234 36.41146593 2 41 C4.64 41 7.28 41 10 41 C10 41.66 10 42.32 10 43 C6.7 43 3.4 43 0 43 C0 28.81 0 14.62 0 0 Z " fill="#EBEEF1" transform="translate(271,30)"/>
<path d="M0 0 C2.97068854 2.97068854 3 5.90033813 3 10 C2.01 10 1.02 10 0 10 C-0.33 10.66 -0.66 11.32 -1 12 C-1.61875 12.144375 -2.2375 12.28875 -2.875 12.4375 C-5.38282641 13.1013364 -6.23995676 14.15995479 -8 16 C-8.66 16 -9.32 16 -10 16 C-9.5777503 10.76410369 -8.04304886 8.38289599 -4.4375 4.625 C-3.61121094 3.75101563 -2.78492188 2.87703125 -1.93359375 1.9765625 C-1.29550781 1.32429688 -0.65742187 0.67203125 0 0 Z " fill="#7151D0" transform="translate(37,55)"/>
<path d="M0 0 C0.99 0.495 0.99 0.495 2 1 C2 4.63 2 8.26 2 12 C3.43214844 11.98839844 4.86429687 11.97679687 6.33984375 11.96484375 C8.20572787 11.95546745 10.07161339 11.94636708 11.9375 11.9375 C13.35579102 11.92493164 13.35579102 11.92493164 14.80273438 11.91210938 C16.15141602 11.90727539 16.15141602 11.90727539 17.52734375 11.90234375 C18.35999756 11.89710693 19.19265137 11.89187012 20.05053711 11.88647461 C22 12 22 12 23 13 C23.04092937 15.33297433 23.04241723 17.66705225 23 20 C21.68 20.33 20.36 20.66 19 21 C19.99 17.535 19.99 17.535 21 14 C20.43490723 14.00523682 19.86981445 14.01047363 19.28759766 14.01586914 C16.7334097 14.03662422 14.17923947 14.0496554 11.625 14.0625 C10.73554688 14.07087891 9.84609375 14.07925781 8.9296875 14.08789062 C7.65351563 14.09272461 7.65351563 14.09272461 6.3515625 14.09765625 C5.17327881 14.10551147 5.17327881 14.10551147 3.97119141 14.11352539 C2 14 2 14 0 13 C0 8.71 0 4.42 0 0 Z " fill="#EFF2F3" transform="translate(411,52)"/>
<path d="M0 0 C2.93804996 -0.08086376 5.87388075 -0.1404283 8.8125 -0.1875 C9.64587891 -0.21263672 10.47925781 -0.23777344 11.33789062 -0.26367188 C12.54155273 -0.27817383 12.54155273 -0.27817383 13.76953125 -0.29296875 C14.87711792 -0.31653442 14.87711792 -0.31653442 16.00708008 -0.34057617 C18.6088393 0.10404641 19.46285336 0.87624756 21 3 C21.34057617 4.90112305 21.34057617 4.90112305 21.29296875 7.01171875 C21.28330078 7.76904297 21.27363281 8.52636719 21.26367188 9.30664062 C21.23853516 10.09232422 21.21339844 10.87800781 21.1875 11.6875 C21.16719727 12.88342773 21.16719727 12.88342773 21.14648438 14.10351562 C21.11117089 16.06929967 21.05736447 18.03473582 21 20 C20.34 20 19.68 20 19 20 C18.67 14.39 18.34 8.78 18 3 C12.06 3 6.12 3 0 3 C0 2.01 0 1.02 0 0 Z " fill="#E7E9EA" transform="translate(281,51)"/>
<path d="M0 0 C0.66 0 1.32 0 2 0 C3.03405665 4.2654837 3 7.37316973 3 12 C9.27 12 15.54 12 22 12 C22.33 13.32 22.66 14.64 23 16 C22.01 15.67 21.02 15.34 20 15 C18.59335074 14.85507877 17.1818867 14.75371069 15.76953125 14.68359375 C14.96708984 14.64169922 14.16464844 14.59980469 13.33789062 14.55664062 C12.50451172 14.51732422 11.67113281 14.47800781 10.8125 14.4375 C9.96751953 14.39431641 9.12253906 14.35113281 8.25195312 14.30664062 C6.16815567 14.20068482 4.08409897 14.0998498 2 14 C0.45132998 10.56731802 -0.23731123 7.94992634 -0.125 4.1875 C-0.10695313 3.39730469 -0.08890625 2.60710938 -0.0703125 1.79296875 C-0.03550781 0.90544922 -0.03550781 0.90544922 0 0 Z " fill="#F0F2F3" transform="translate(326,52)"/>
<path d="M0 0 C0.66 0.33 1.32 0.66 2 1 C1.67 1.99 1.34 2.98 1 4 C-5.27 4 -11.54 4 -18 4 C-18 7.63 -18 11.26 -18 15 C-18.99 15.495 -18.99 15.495 -20 16 C-20.05386629 13.87527424 -20.09273071 11.75016348 -20.125 9.625 C-20.14820313 8.44164062 -20.17140625 7.25828125 -20.1953125 6.0390625 C-20 3 -20 3 -18 1 C-15.11393841 0.88083734 -12.3184233 0.85989145 -9.4375 0.9375 C-6.62071435 0.99928165 -3.81841677 1.02057239 -1 1 C-0.67 0.67 -0.34 0.34 0 0 Z " fill="#F0F1F3" transform="translate(431,29)"/>
<path d="M0 0 C2.8203125 -0.29296875 2.8203125 -0.29296875 6.125 -0.1875 C7.76855469 -0.14689453 7.76855469 -0.14689453 9.4453125 -0.10546875 C10.28835938 -0.07066406 11.13140625 -0.03585938 12 0 C10.45600247 3.28771612 8.60378313 6.24733837 6.5625 9.25 C5.96566406 10.14203125 5.36882812 11.0340625 4.75390625 11.953125 C3.88572266 12.96632813 3.88572266 12.96632813 3 14 C2.01 14 1.02 14 0 14 C2.64 10.37 5.28 6.74 8 3 C5.36 2.67 2.72 2.34 0 2 C-0.33 3.65 -0.66 5.3 -1 7 C-1.99 7.33 -2.98 7.66 -4 8 C-2.87548273 5.0280615 -1.77706209 2.66559313 0 0 Z " fill="#EFF0F3" transform="translate(253,24)"/>
<path d="M0 0 C3.63 0 7.26 0 11 0 C11 6.6 11 13.2 11 20 C10.34 20.33 9.68 20.66 9 21 C9 14.73 9 8.46 9 2 C6.69 2 4.38 2 2 2 C1.67 3.32 1.34 4.64 1 6 C0.67 6 0.34 6 0 6 C0 4.02 0 2.04 0 0 Z " fill="#EAEBEE" transform="translate(270,24)"/>
<path d="M0 0 C2.475 0.495 2.475 0.495 5 1 C4.01 1.495 4.01 1.495 3 2 C3.09539062 2.64324219 3.19078125 3.28648438 3.2890625 3.94921875 C4.2292672 11.6129803 3.45397514 18.44173253 2 26 C1.67 26 1.34 26 1 26 C0.20354316 17.31008699 -0.12852505 8.72542301 0 0 Z " fill="#EAEEED" transform="translate(318,24)"/>
<path d="M0 0 C1.485 0.99 1.485 0.99 3 2 C3 2.66 3 3.32 3 4 C3.99 4.33 4.98 4.66 6 5 C7.37195574 6.29355827 8.71182656 7.62298702 10 9 C9.34 10.65 8.68 12.3 8 14 C5.5 12.6875 5.5 12.6875 3 11 C3 10.01 3 9.02 3 8 C1.68 7.67 0.36 7.34 -1 7 C-1 3 -1 3 0 0 Z " fill="#633BD1" transform="translate(47,66)"/>
<path d="M0 0 C0.33 0 0.66 0 1 0 C1 10.89 1 21.78 1 33 C0.34 33 -0.32 33 -1 33 C-1 32.34 -1 31.68 -1 31 C-1.66 31 -2.32 31 -3 31 C-2.67 30.34 -2.34 29.68 -2 29 C-1.77627304 26.82449886 -1.60717019 24.64327619 -1.46484375 22.4609375 C-1.37783203 21.15898438 -1.29082031 19.85703125 -1.20117188 18.515625 C-1.11318888 17.13542255 -1.02529947 15.75521413 -0.9375 14.375 C-0.84609599 12.98695324 -0.75430391 11.59893198 -0.66210938 10.2109375 C-0.43757861 6.80752382 -0.21704824 3.40389773 0 0 Z " fill="#5D43B9" transform="translate(78,21)"/>
<path d="M0 0 C0.66 0 1.32 0 2 0 C2.09765625 6.15234375 2.09765625 6.15234375 2 8 C1 9 1 9 -2.59765625 9.09765625 C-4.08596867 9.0909822 -5.57426432 9.07902183 -7.0625 9.0625 C-8.20041992 9.05573242 -8.20041992 9.05573242 -9.36132812 9.04882812 C-11.24091871 9.0370068 -13.12046899 9.01907078 -15 9 C-15 8.34 -15 7.68 -15 7 C-11.68929162 5.99890485 -8.69915231 5.89643866 -5.25 5.9375 C-4.26515625 5.94652344 -3.2803125 5.95554687 -2.265625 5.96484375 C-1.14414062 5.98224609 -1.14414062 5.98224609 0 6 C0 4.02 0 2.04 0 0 Z " fill="#EAEBEC" transform="translate(429,44)"/>
<path d="M0 0 C0.33 0.66 0.66 1.32 1 2 C0.45859375 2.90363281 -0.0828125 3.80726562 -0.640625 4.73828125 C-2.42628934 7.96317957 -2.42628934 7.96317957 -0.796875 11.10546875 C-0.12140625 12.12253906 0.5540625 13.13960937 1.25 14.1875 C4.97609562 19.92828685 4.97609562 19.92828685 6 23 C1.79472231 21.4927987 0.41673411 18.91215491 -1.75 15.125 C-2.36359375 14.07570313 -2.9771875 13.02640625 -3.609375 11.9453125 C-5 9 -5 9 -5 5 C-2.5 2.25 -2.5 2.25 0 0 Z " fill="#EEEFF2" transform="translate(252,40)"/>
<path d="M0 0 C2 2 2 2 2 4 C2.33 4.99 2.66 5.98 3 7 C2.67 7.99 2.34 8.98 2 10 C-0.64 10 -3.28 10 -6 10 C-5.18957164 8.51969728 -4.37659652 7.04078858 -3.5625 5.5625 C-2.88380859 4.32693359 -2.88380859 4.32693359 -2.19140625 3.06640625 C-1 1 -1 1 0 0 Z " fill="#DBDCDF" transform="translate(230,61)"/>
<path d="M0 0 C0.99 0.66 1.98 1.32 3 2 C1.02 2.99 1.02 2.99 -1 4 C-0.773125 4.598125 -0.54625 5.19625 -0.3125 5.8125 C-0.209375 6.534375 -0.10625 7.25625 0 8 C-1.73834173 10.25984425 -3.59701393 11.39800928 -6 13 C-6.72965366 15.56282742 -6.72965366 15.56282742 -7 18 C-7.33 18 -7.66 18 -8 18 C-9.13338184 12.76900691 -9.13338184 12.76900691 -9 10 C-6.75 7.8125 -6.75 7.8125 -4 6 C-2.26509754 3.41556677 -2.26509754 3.41556677 -1 1 C-0.67 0.67 -0.34 0.34 0 0 Z " fill="#6D45D6" transform="translate(11,16)"/>
<path d="M0 0 C1.32 0 2.64 0 4 0 C4 7.26 4 14.52 4 22 C3.67 22 3.34 22 3 22 C2.34 15.73 1.68 9.46 1 3 C0.01 2.67 -0.98 2.34 -2 2 C-1.34 1.34 -0.68 0.68 0 0 Z " fill="#7461C7" transform="translate(94,0)"/>
<path d="M0 0 C0 0.99 0 1.98 0 3 C-1 4 -2 5 -3 6 C-3.433125 7.2065625 -3.433125 7.2065625 -3.875 8.4375 C-5.28477464 11.64865334 -7.17714301 12.99428583 -10 15 C-10.66 14.67 -11.32 14.34 -12 14 C-12 14.66 -12 15.32 -12 16 C-12.66 15.67 -13.32 15.34 -14 15 C-9.53648711 9.77674023 -4.9255107 4.79077028 0 0 Z " fill="#7256C9" transform="translate(91,3)"/>
<path d="M0 0 C4.62 0 9.24 0 14 0 C13.67 0.99 13.34 1.98 13 3 C8.38 3 3.76 3 -1 3 C-0.67 2.01 -0.34 1.02 0 0 Z " fill="#E3E4E7" transform="translate(416,43)"/>
<path d="M0 0 C0.99 0 1.98 0 3 0 C6.0524944 3.3040736 7.97410251 6.67922782 8.0625 11.1875 C6.85950207 14.37190629 5.28451862 16.49439893 3 19 C2.34 18.67 1.68 18.34 1 18 C2.65 15.03 4.3 12.06 6 9 C4.02 6.03 2.04 3.06 0 0 Z " fill="#EEEFF2" transform="translate(230,38)"/>
<path d="M0 0 C0.99 0.33 1.98 0.66 3 1 C2.67 7.27 2.34 13.54 2 20 C1.34 19.67 0.68 19.34 0 19 C0 12.73 0 6.46 0 0 Z " fill="#F4F5F9" transform="translate(300,24)"/>
<path d="M0 0 C4.22797927 -0.96891192 4.22797927 -0.96891192 7 0 C10.10641799 3.38734622 12.56788536 7.10861658 15 11 C14.34 11.66 13.68 12.32 13 13 C12.38125 12.05125 11.7625 11.1025 11.125 10.125 C9.18029031 7.05554891 9.18029031 7.05554891 7 5 C6.67 4.34 6.34 3.68 6 3 C2.97065509 2.34227572 2.97065509 2.34227572 0 2 C0 1.34 0 0.68 0 0 Z " fill="#EEEFF2" transform="translate(443,24)"/>
<path d="M0 0 C0.66 0.33 1.32 0.66 2 1 C2 6.61 2 12.22 2 18 C1.34 18 0.68 18 0 18 C-0.19384179 15.18780295 -0.38036603 12.37545804 -0.5625 9.5625 C-0.61857422 8.76005859 -0.67464844 7.95761719 -0.73242188 7.13085938 C-0.8616295 5.08937889 -0.9351273 3.04453631 -1 1 C-0.67 0.67 -0.34 0.34 0 0 Z " fill="#F2F4F7" transform="translate(300,53)"/>
<path d="M0 0 C2.0625 0.4375 2.0625 0.4375 4 1 C3.67 1.33 3.34 1.66 3 2 C2.84174742 3.99782126 2.74880829 6.00088834 2.68359375 8.00390625 C2.64169922 9.21884766 2.59980469 10.43378906 2.55664062 11.68554688 C2.51732422 12.96494141 2.47800781 14.24433594 2.4375 15.5625 C2.39431641 16.84576172 2.35113281 18.12902344 2.30664062 19.45117188 C2.200152 22.63399853 2.09814038 25.81690674 2 29 C1.67 29 1.34 29 1 29 C0.97494385 28.25838623 0.9498877 27.51677246 0.92407227 26.75268555 C0.80813868 23.39744672 0.68540015 20.04249056 0.5625 16.6875 C0.52318359 15.52025391 0.48386719 14.35300781 0.44335938 13.15039062 C0.40146484 12.03212891 0.35957031 10.91386719 0.31640625 9.76171875 C0.27974854 8.73006592 0.24309082 7.69841309 0.20532227 6.63549805 C0.09838758 3.89251742 0.09838758 3.89251742 -1 1 C-0.67 0.67 -0.34 0.34 0 0 Z " fill="#F6FAFC" transform="translate(471,23)"/>
<path d="M0 0 C0.66 0.33 1.32 0.66 2 1 C1.67 1.99 1.34 2.98 1 4 C-5.44070471 4.10655578 -11.62641289 3.96205088 -18 3 C-18 2.67 -18 2.34 -18 2 C-16.17662109 1.90912109 -16.17662109 1.90912109 -14.31640625 1.81640625 C-12.73175772 1.73201668 -11.14712298 1.6473679 -9.5625 1.5625 C-8.76005859 1.52318359 -7.95761719 1.48386719 -7.13085938 1.44335938 C-3.24760439 1.5945704 -3.24760439 1.5945704 0 0 Z " fill="#F7F8FB" transform="translate(431,29)"/>
<path d="M0 0 C5.66129431 4.69766975 10.85228904 9.74723372 16 15 C13 15 13 15 10.87890625 13.1015625 C10.11449219 12.28429688 9.35007812 11.46703125 8.5625 10.625 C5.85912236 7.74322688 3.67552059 5.52379213 0 4 C0 2.68 0 1.36 0 0 Z " fill="#6B51BD" transform="translate(29,3)"/>
<path d="M0 0 C3.2542015 2.83430453 4.5206753 4.68607774 5 9 C5.66 9 6.32 9 7 9 C7.66 10.32 8.32 11.64 9 13 C8.01 12.67 7.02 12.34 6 12 C6 11.34 6 10.68 6 10 C5.4225 9.773125 4.845 9.54625 4.25 9.3125 C1.40260191 7.65151778 -0.12067193 5.68475439 -2 3 C-2 2.34 -2 1.68 -2 1 C-1.34 0.67 -0.68 0.34 0 0 Z " fill="#6148BC" transform="translate(48,44)"/>
<path d="M0 0 C0.66 0.99 1.32 1.98 2 3 C0.54782324 4.50596108 -0.91192861 6.00462104 -2.375 7.5 C-3.18710938 8.3353125 -3.99921875 9.170625 -4.8359375 10.03125 C-7 12 -7 12 -9 12 C-9 11.34 -9 10.68 -9 10 C-8.34 10 -7.68 10 -7 10 C-6.34 8.35 -5.68 6.7 -5 5 C-4.34 5 -3.68 5 -3 5 C-2.690625 4.360625 -2.38125 3.72125 -2.0625 3.0625 C-1 1 -1 1 0 0 Z " fill="#6442BD" transform="translate(11,91)"/>
<path d="M0 0 C2.475 0.99 2.475 0.99 5 2 C3.1875 5 3.1875 5 1 8 C0.01 8 -0.98 8 -2 8 C-1.34 5.36 -0.68 2.72 0 0 Z " fill="#633DD3" transform="translate(15,83)"/>
<path d="M0 0 C3.26954202 0.56371414 4.82575883 1.49962266 7 4 C7.66 3.34 8.32 2.68 9 2 C9.99 2.33 10.98 2.66 12 3 C11.34 4.32 10.68 5.64 10 7 C6.433255 7 5.89456323 6.36308045 3.3125 4.0625 C2.68988281 3.51722656 2.06726563 2.97195312 1.42578125 2.41015625 C0.95527344 1.94480469 0.48476563 1.47945312 0 1 C0 0.67 0 0.34 0 0 Z " fill="#694BC3" transform="translate(26,26)"/>
<path d="M0 0 C2.97 0 5.94 0 9 0 C9.33 1.65 9.66 3.3 10 5 C9.67 4.01 9.34 3.02 9 2 C6.69 2 4.38 2 2 2 C1.67 3.32 1.34 4.64 1 6 C0.67 6 0.34 6 0 6 C0 4.02 0 2.04 0 0 Z " fill="#F2F3F6" transform="translate(270,24)"/>
<path d="M0 0 C0 3.60352128 -1.08590249 5.01400788 -3 8 C-3.33 8.66 -3.66 9.32 -4 10 C-5.64363134 10.72159424 -7.31050386 11.39351421 -9 12 C-7.54718935 6.67302761 -3.91888622 3.63597198 0 0 Z " fill="#6546BE" transform="translate(11,14)"/>
<path d="M0 0 C0.66 0 1.32 0 2 0 C2 1.32 2 2.64 2 4 C-2.95 4 -7.9 4 -13 4 C-13 3.67 -13 3.34 -13 3 C-6.565 2.505 -6.565 2.505 0 2 C0 1.34 0 0.68 0 0 Z " fill="#E9ECEF" transform="translate(347,69)"/>
<path d="M0 0 C0.66 0 1.32 0 2 0 C2 3.96 2 7.92 2 12 C1.01 12.495 1.01 12.495 0 13 C-0.19397476 11.02145742 -0.38001321 9.0421352 -0.5625 7.0625 C-0.66691406 5.96035156 -0.77132813 4.85820313 -0.87890625 3.72265625 C-0.91886719 2.82417969 -0.95882813 1.92570312 -1 1 C-0.67 0.67 -0.34 0.34 0 0 Z " fill="#EDEEF0" transform="translate(326,32)"/>
<path d="M0 0 C1.32 0.33 2.64 0.66 4 1 C4 3.31 4 5.62 4 8 C2.68 8.33 1.36 8.66 0 9 C0.66 6.36 1.32 3.72 2 1 C1.34 0.67 0.68 0.34 0 0 Z " fill="#E9EAEF" transform="translate(430,64)"/>
<path d="M0 0 C1.33895632 1.66215268 2.67130142 3.32963607 4 5 C4.5775 5.721875 5.155 6.44375 5.75 7.1875 C7 9 7 9 7 11 C6.34 11 5.68 11 5 11 C3.4921875 9.03125 3.4921875 9.03125 1.875 6.5 C1.33617187 5.6646875 0.79734375 4.829375 0.2421875 3.96875 C-0.16773438 3.3190625 -0.57765625 2.669375 -1 2 C-0.67 1.34 -0.34 0.68 0 0 Z " fill="#EEEFF2" transform="translate(460,52)"/>
<path d="M0 0 C1.32 0 2.64 0 4 0 C4 1.98 4 3.96 4 6 C3.01 6 2.02 6 1 6 C0.4465236 3.92446352 0 2.15634036 0 0 Z " fill="#E3E3E6" transform="translate(342,44)"/>
<path d="M0 0 C3 1 3 1 4.6875 4.0625 C5.120625 5.031875 5.55375 6.00125 6 7 C4.68 6.34 3.36 5.68 2 5 C1.34 5.99 0.68 6.98 0 8 C-0.38063221 5.6739143 -0.71269945 3.33944736 -1 1 C-0.67 0.67 -0.34 0.34 0 0 Z " fill="#EAEBED" transform="translate(450,39)"/>
<path d="M0 0 C0.33 0.99 0.66 1.98 1 3 C-1.64 3 -4.28 3 -7 3 C-7.33 2.34 -7.66 1.68 -8 1 C-5.29120665 -0.35439668 -2.99066732 -0.06501451 0 0 Z " fill="#E4E6E8" transform="translate(308,70)"/>
<path d="M0 0 C1.485 0.99 1.485 0.99 3 2 C3 2.66 3 3.32 3 4 C3.99 4.33 4.98 4.66 6 5 C5.67 5.66 5.34 6.32 5 7 C3.35 6.67 1.7 6.34 0 6 C-1 3 -1 3 0 0 Z " fill="#5E3EB3" transform="translate(47,66)"/>
<path d="M0 0 C0.33 1.32 0.66 2.64 1 4 C-1.64 4 -4.28 4 -7 4 C-6 2 -6 2 -2.9375 0.875 C-1.4834375 0.441875 -1.4834375 0.441875 0 0 Z " fill="#F0F1F5" transform="translate(450,69)"/>
<path d="M0 0 C0.598125 0.185625 1.19625 0.37125 1.8125 0.5625 C4.16408762 1.22093687 4.16408762 1.22093687 7 0 C6.67 1.65 6.34 3.3 6 5 C3.98079663 3.69593116 1.98075027 2.36176581 0 1 C0 0.67 0 0.34 0 0 Z " fill="#6141C3" transform="translate(70,70)"/>
<path d="M0 0 C1.485 0.99 1.485 0.99 3 2 C3 2.66 3 3.32 3 4 C3.99 4.33 4.98 4.66 6 5 C2.98968256 5.93423645 2.13349732 6.04449911 -1 5 C-0.67 3.35 -0.34 1.7 0 0 Z " fill="#684AC0" transform="translate(39,58)"/>
<path d="" fill="#FFFFFF" transform="translate(0,0)"/>
</svg>
